%TF.GenerationSoftware,KiCad,Pcbnew,5.1.8*%
%TF.CreationDate,2020-12-08T00:01:30+01:00*%
%TF.ProjectId,ESP8266_base_vreg,45535038-3236-4365-9f62-6173655f7672,rev?*%
%TF.SameCoordinates,Original*%
%TF.FileFunction,Legend,Top*%
%TF.FilePolarity,Positive*%
%FSLAX46Y46*%
G04 Gerber Fmt 4.6, Leading zero omitted, Abs format (unit mm)*
G04 Created by KiCad (PCBNEW 5.1.8) date 2020-12-08 00:01:30*
%MOMM*%
%LPD*%
G01*
G04 APERTURE LIST*
%ADD10C,0.150000*%
%ADD11C,0.120000*%
G04 APERTURE END LIST*
D10*
X148052380Y-90819047D02*
X148766666Y-90819047D01*
X148909523Y-90866666D01*
X149004761Y-90961904D01*
X149052380Y-91104761D01*
X149052380Y-91200000D01*
X149052380Y-89866666D02*
X149052380Y-90342857D01*
X148052380Y-90342857D01*
X148957142Y-88961904D02*
X149004761Y-89009523D01*
X149052380Y-89152380D01*
X149052380Y-89247619D01*
X149004761Y-89390476D01*
X148909523Y-89485714D01*
X148814285Y-89533333D01*
X148623809Y-89580952D01*
X148480952Y-89580952D01*
X148290476Y-89533333D01*
X148195238Y-89485714D01*
X148100000Y-89390476D01*
X148052380Y-89247619D01*
X148052380Y-89152380D01*
X148100000Y-89009523D01*
X148147619Y-88961904D01*
X148052380Y-88247619D02*
X148766666Y-88247619D01*
X148909523Y-88295238D01*
X149004761Y-88390476D01*
X149052380Y-88533333D01*
X149052380Y-88628571D01*
X149052380Y-87295238D02*
X149052380Y-87771428D01*
X148052380Y-87771428D01*
X148957142Y-86390476D02*
X149004761Y-86438095D01*
X149052380Y-86580952D01*
X149052380Y-86676190D01*
X149004761Y-86819047D01*
X148909523Y-86914285D01*
X148814285Y-86961904D01*
X148623809Y-87009523D01*
X148480952Y-87009523D01*
X148290476Y-86961904D01*
X148195238Y-86914285D01*
X148100000Y-86819047D01*
X148052380Y-86676190D01*
X148052380Y-86580952D01*
X148100000Y-86438095D01*
X148147619Y-86390476D01*
X148052380Y-85676190D02*
X148766666Y-85676190D01*
X148909523Y-85723809D01*
X149004761Y-85819047D01*
X149052380Y-85961904D01*
X149052380Y-86057142D01*
X149052380Y-84723809D02*
X149052380Y-85200000D01*
X148052380Y-85200000D01*
X148957142Y-83819047D02*
X149004761Y-83866666D01*
X149052380Y-84009523D01*
X149052380Y-84104761D01*
X149004761Y-84247619D01*
X148909523Y-84342857D01*
X148814285Y-84390476D01*
X148623809Y-84438095D01*
X148480952Y-84438095D01*
X148290476Y-84390476D01*
X148195238Y-84342857D01*
X148100000Y-84247619D01*
X148052380Y-84104761D01*
X148052380Y-84009523D01*
X148100000Y-83866666D01*
X148147619Y-83819047D01*
X148052380Y-83104761D02*
X148766666Y-83104761D01*
X148909523Y-83152380D01*
X149004761Y-83247619D01*
X149052380Y-83390476D01*
X149052380Y-83485714D01*
X149052380Y-82152380D02*
X149052380Y-82628571D01*
X148052380Y-82628571D01*
X148957142Y-81247619D02*
X149004761Y-81295238D01*
X149052380Y-81438095D01*
X149052380Y-81533333D01*
X149004761Y-81676190D01*
X148909523Y-81771428D01*
X148814285Y-81819047D01*
X148623809Y-81866666D01*
X148480952Y-81866666D01*
X148290476Y-81819047D01*
X148195238Y-81771428D01*
X148100000Y-81676190D01*
X148052380Y-81533333D01*
X148052380Y-81438095D01*
X148100000Y-81295238D01*
X148147619Y-81247619D01*
X140671714Y-68528571D02*
X141071714Y-70028571D01*
X141471714Y-68528571D01*
X141871714Y-70028571D02*
X141871714Y-68528571D01*
X142443142Y-70028571D02*
X142443142Y-68528571D01*
X143128857Y-70028571D01*
X143128857Y-68528571D01*
X141071714Y-71000000D02*
X140957428Y-70928571D01*
X140786000Y-70928571D01*
X140614571Y-71000000D01*
X140500285Y-71142857D01*
X140443142Y-71285714D01*
X140386000Y-71571428D01*
X140386000Y-71785714D01*
X140443142Y-72071428D01*
X140500285Y-72214285D01*
X140614571Y-72357142D01*
X140786000Y-72428571D01*
X140900285Y-72428571D01*
X141071714Y-72357142D01*
X141128857Y-72285714D01*
X141128857Y-71785714D01*
X140900285Y-71785714D01*
X141643142Y-72428571D02*
X141643142Y-70928571D01*
X142328857Y-72428571D01*
X142328857Y-70928571D01*
X142900285Y-72428571D02*
X142900285Y-70928571D01*
X143186000Y-70928571D01*
X143357428Y-71000000D01*
X143471714Y-71142857D01*
X143528857Y-71285714D01*
X143586000Y-71571428D01*
X143586000Y-71785714D01*
X143528857Y-72071428D01*
X143471714Y-72214285D01*
X143357428Y-72357142D01*
X143186000Y-72428571D01*
X142900285Y-72428571D01*
X141328857Y-74828571D02*
X140928857Y-74114285D01*
X140643142Y-74828571D02*
X140643142Y-73328571D01*
X141100285Y-73328571D01*
X141214571Y-73400000D01*
X141271714Y-73471428D01*
X141328857Y-73614285D01*
X141328857Y-73828571D01*
X141271714Y-73971428D01*
X141214571Y-74042857D01*
X141100285Y-74114285D01*
X140643142Y-74114285D01*
X141786000Y-74757142D02*
X141957428Y-74828571D01*
X142243142Y-74828571D01*
X142357428Y-74757142D01*
X142414571Y-74685714D01*
X142471714Y-74542857D01*
X142471714Y-74400000D01*
X142414571Y-74257142D01*
X142357428Y-74185714D01*
X142243142Y-74114285D01*
X142014571Y-74042857D01*
X141900285Y-73971428D01*
X141843142Y-73900000D01*
X141786000Y-73757142D01*
X141786000Y-73614285D01*
X141843142Y-73471428D01*
X141900285Y-73400000D01*
X142014571Y-73328571D01*
X142300285Y-73328571D01*
X142471714Y-73400000D01*
X142814571Y-73328571D02*
X143500285Y-73328571D01*
X143157428Y-74828571D02*
X143157428Y-73328571D01*
X140500285Y-76800000D02*
X141071714Y-76800000D01*
X140386000Y-77228571D02*
X140786000Y-75728571D01*
X141186000Y-77228571D01*
X141586000Y-77228571D02*
X141586000Y-75728571D01*
X141871714Y-75728571D01*
X142043142Y-75800000D01*
X142157428Y-75942857D01*
X142214571Y-76085714D01*
X142271714Y-76371428D01*
X142271714Y-76585714D01*
X142214571Y-76871428D01*
X142157428Y-77014285D01*
X142043142Y-77157142D01*
X141871714Y-77228571D01*
X141586000Y-77228571D01*
X143471714Y-77085714D02*
X143414571Y-77157142D01*
X143243142Y-77228571D01*
X143128857Y-77228571D01*
X142957428Y-77157142D01*
X142843142Y-77014285D01*
X142786000Y-76871428D01*
X142728857Y-76585714D01*
X142728857Y-76371428D01*
X142786000Y-76085714D01*
X142843142Y-75942857D01*
X142957428Y-75800000D01*
X143128857Y-75728571D01*
X143243142Y-75728571D01*
X143414571Y-75800000D01*
X143471714Y-75871428D01*
X139643142Y-78200000D02*
X139528857Y-78128571D01*
X139357428Y-78128571D01*
X139186000Y-78200000D01*
X139071714Y-78342857D01*
X139014571Y-78485714D01*
X138957428Y-78771428D01*
X138957428Y-78985714D01*
X139014571Y-79271428D01*
X139071714Y-79414285D01*
X139186000Y-79557142D01*
X139357428Y-79628571D01*
X139471714Y-79628571D01*
X139643142Y-79557142D01*
X139700285Y-79485714D01*
X139700285Y-78985714D01*
X139471714Y-78985714D01*
X140214571Y-79628571D02*
X140214571Y-78128571D01*
X140671714Y-78128571D01*
X140786000Y-78200000D01*
X140843142Y-78271428D01*
X140900285Y-78414285D01*
X140900285Y-78628571D01*
X140843142Y-78771428D01*
X140786000Y-78842857D01*
X140671714Y-78914285D01*
X140214571Y-78914285D01*
X141414571Y-79628571D02*
X141414571Y-78128571D01*
X142214571Y-78128571D02*
X142443142Y-78128571D01*
X142557428Y-78200000D01*
X142671714Y-78342857D01*
X142728857Y-78628571D01*
X142728857Y-79128571D01*
X142671714Y-79414285D01*
X142557428Y-79557142D01*
X142443142Y-79628571D01*
X142214571Y-79628571D01*
X142100285Y-79557142D01*
X141986000Y-79414285D01*
X141928857Y-79128571D01*
X141928857Y-78628571D01*
X141986000Y-78342857D01*
X142100285Y-78200000D01*
X142214571Y-78128571D01*
X143871714Y-79628571D02*
X143186000Y-79628571D01*
X143528857Y-79628571D02*
X143528857Y-78128571D01*
X143414571Y-78342857D01*
X143300285Y-78485714D01*
X143186000Y-78557142D01*
X144900285Y-78128571D02*
X144671714Y-78128571D01*
X144557428Y-78200000D01*
X144500285Y-78271428D01*
X144386000Y-78485714D01*
X144328857Y-78771428D01*
X144328857Y-79342857D01*
X144386000Y-79485714D01*
X144443142Y-79557142D01*
X144557428Y-79628571D01*
X144786000Y-79628571D01*
X144900285Y-79557142D01*
X144957428Y-79485714D01*
X145014571Y-79342857D01*
X145014571Y-78985714D01*
X144957428Y-78842857D01*
X144900285Y-78771428D01*
X144786000Y-78700000D01*
X144557428Y-78700000D01*
X144443142Y-78771428D01*
X144386000Y-78842857D01*
X144328857Y-78985714D01*
X139643142Y-80600000D02*
X139528857Y-80528571D01*
X139357428Y-80528571D01*
X139186000Y-80600000D01*
X139071714Y-80742857D01*
X139014571Y-80885714D01*
X138957428Y-81171428D01*
X138957428Y-81385714D01*
X139014571Y-81671428D01*
X139071714Y-81814285D01*
X139186000Y-81957142D01*
X139357428Y-82028571D01*
X139471714Y-82028571D01*
X139643142Y-81957142D01*
X139700285Y-81885714D01*
X139700285Y-81385714D01*
X139471714Y-81385714D01*
X140214571Y-82028571D02*
X140214571Y-80528571D01*
X140671714Y-80528571D01*
X140786000Y-80600000D01*
X140843142Y-80671428D01*
X140900285Y-80814285D01*
X140900285Y-81028571D01*
X140843142Y-81171428D01*
X140786000Y-81242857D01*
X140671714Y-81314285D01*
X140214571Y-81314285D01*
X141414571Y-82028571D02*
X141414571Y-80528571D01*
X142214571Y-80528571D02*
X142443142Y-80528571D01*
X142557428Y-80600000D01*
X142671714Y-80742857D01*
X142728857Y-81028571D01*
X142728857Y-81528571D01*
X142671714Y-81814285D01*
X142557428Y-81957142D01*
X142443142Y-82028571D01*
X142214571Y-82028571D01*
X142100285Y-81957142D01*
X141986000Y-81814285D01*
X141928857Y-81528571D01*
X141928857Y-81028571D01*
X141986000Y-80742857D01*
X142100285Y-80600000D01*
X142214571Y-80528571D01*
X143871714Y-82028571D02*
X143186000Y-82028571D01*
X143528857Y-82028571D02*
X143528857Y-80528571D01*
X143414571Y-80742857D01*
X143300285Y-80885714D01*
X143186000Y-80957142D01*
X144900285Y-81028571D02*
X144900285Y-82028571D01*
X144614571Y-80457142D02*
X144328857Y-81528571D01*
X145071714Y-81528571D01*
X139643142Y-83000000D02*
X139528857Y-82928571D01*
X139357428Y-82928571D01*
X139186000Y-83000000D01*
X139071714Y-83142857D01*
X139014571Y-83285714D01*
X138957428Y-83571428D01*
X138957428Y-83785714D01*
X139014571Y-84071428D01*
X139071714Y-84214285D01*
X139186000Y-84357142D01*
X139357428Y-84428571D01*
X139471714Y-84428571D01*
X139643142Y-84357142D01*
X139700285Y-84285714D01*
X139700285Y-83785714D01*
X139471714Y-83785714D01*
X140214571Y-84428571D02*
X140214571Y-82928571D01*
X140671714Y-82928571D01*
X140786000Y-83000000D01*
X140843142Y-83071428D01*
X140900285Y-83214285D01*
X140900285Y-83428571D01*
X140843142Y-83571428D01*
X140786000Y-83642857D01*
X140671714Y-83714285D01*
X140214571Y-83714285D01*
X141414571Y-84428571D02*
X141414571Y-82928571D01*
X142214571Y-82928571D02*
X142443142Y-82928571D01*
X142557428Y-83000000D01*
X142671714Y-83142857D01*
X142728857Y-83428571D01*
X142728857Y-83928571D01*
X142671714Y-84214285D01*
X142557428Y-84357142D01*
X142443142Y-84428571D01*
X142214571Y-84428571D01*
X142100285Y-84357142D01*
X141986000Y-84214285D01*
X141928857Y-83928571D01*
X141928857Y-83428571D01*
X141986000Y-83142857D01*
X142100285Y-83000000D01*
X142214571Y-82928571D01*
X143871714Y-84428571D02*
X143186000Y-84428571D01*
X143528857Y-84428571D02*
X143528857Y-82928571D01*
X143414571Y-83142857D01*
X143300285Y-83285714D01*
X143186000Y-83357142D01*
X144328857Y-83071428D02*
X144386000Y-83000000D01*
X144500285Y-82928571D01*
X144786000Y-82928571D01*
X144900285Y-83000000D01*
X144957428Y-83071428D01*
X145014571Y-83214285D01*
X145014571Y-83357142D01*
X144957428Y-83571428D01*
X144271714Y-84428571D01*
X145014571Y-84428571D01*
X139643142Y-85400000D02*
X139528857Y-85328571D01*
X139357428Y-85328571D01*
X139186000Y-85400000D01*
X139071714Y-85542857D01*
X139014571Y-85685714D01*
X138957428Y-85971428D01*
X138957428Y-86185714D01*
X139014571Y-86471428D01*
X139071714Y-86614285D01*
X139186000Y-86757142D01*
X139357428Y-86828571D01*
X139471714Y-86828571D01*
X139643142Y-86757142D01*
X139700285Y-86685714D01*
X139700285Y-86185714D01*
X139471714Y-86185714D01*
X140214571Y-86828571D02*
X140214571Y-85328571D01*
X140671714Y-85328571D01*
X140786000Y-85400000D01*
X140843142Y-85471428D01*
X140900285Y-85614285D01*
X140900285Y-85828571D01*
X140843142Y-85971428D01*
X140786000Y-86042857D01*
X140671714Y-86114285D01*
X140214571Y-86114285D01*
X141414571Y-86828571D02*
X141414571Y-85328571D01*
X142214571Y-85328571D02*
X142443142Y-85328571D01*
X142557428Y-85400000D01*
X142671714Y-85542857D01*
X142728857Y-85828571D01*
X142728857Y-86328571D01*
X142671714Y-86614285D01*
X142557428Y-86757142D01*
X142443142Y-86828571D01*
X142214571Y-86828571D01*
X142100285Y-86757142D01*
X141986000Y-86614285D01*
X141928857Y-86328571D01*
X141928857Y-85828571D01*
X141986000Y-85542857D01*
X142100285Y-85400000D01*
X142214571Y-85328571D01*
X143871714Y-86828571D02*
X143186000Y-86828571D01*
X143528857Y-86828571D02*
X143528857Y-85328571D01*
X143414571Y-85542857D01*
X143300285Y-85685714D01*
X143186000Y-85757142D01*
X144271714Y-85328571D02*
X145014571Y-85328571D01*
X144614571Y-85900000D01*
X144786000Y-85900000D01*
X144900285Y-85971428D01*
X144957428Y-86042857D01*
X145014571Y-86185714D01*
X145014571Y-86542857D01*
X144957428Y-86685714D01*
X144900285Y-86757142D01*
X144786000Y-86828571D01*
X144443142Y-86828571D01*
X144328857Y-86757142D01*
X144271714Y-86685714D01*
X140500285Y-87728571D02*
X141243142Y-87728571D01*
X140843142Y-88300000D01*
X141014571Y-88300000D01*
X141128857Y-88371428D01*
X141186000Y-88442857D01*
X141243142Y-88585714D01*
X141243142Y-88942857D01*
X141186000Y-89085714D01*
X141128857Y-89157142D01*
X141014571Y-89228571D01*
X140671714Y-89228571D01*
X140557428Y-89157142D01*
X140500285Y-89085714D01*
X141586000Y-87728571D02*
X141986000Y-89228571D01*
X142386000Y-87728571D01*
X142671714Y-87728571D02*
X143414571Y-87728571D01*
X143014571Y-88300000D01*
X143186000Y-88300000D01*
X143300285Y-88371428D01*
X143357428Y-88442857D01*
X143414571Y-88585714D01*
X143414571Y-88942857D01*
X143357428Y-89085714D01*
X143300285Y-89157142D01*
X143186000Y-89228571D01*
X142843142Y-89228571D01*
X142728857Y-89157142D01*
X142671714Y-89085714D01*
X139957428Y-91557142D02*
X140128857Y-91628571D01*
X140414571Y-91628571D01*
X140528857Y-91557142D01*
X140586000Y-91485714D01*
X140643142Y-91342857D01*
X140643142Y-91200000D01*
X140586000Y-91057142D01*
X140528857Y-90985714D01*
X140414571Y-90914285D01*
X140186000Y-90842857D01*
X140071714Y-90771428D01*
X140014571Y-90700000D01*
X139957428Y-90557142D01*
X139957428Y-90414285D01*
X140014571Y-90271428D01*
X140071714Y-90200000D01*
X140186000Y-90128571D01*
X140471714Y-90128571D01*
X140643142Y-90200000D01*
X141843142Y-91485714D02*
X141786000Y-91557142D01*
X141614571Y-91628571D01*
X141500285Y-91628571D01*
X141328857Y-91557142D01*
X141214571Y-91414285D01*
X141157428Y-91271428D01*
X141100285Y-90985714D01*
X141100285Y-90771428D01*
X141157428Y-90485714D01*
X141214571Y-90342857D01*
X141328857Y-90200000D01*
X141500285Y-90128571D01*
X141614571Y-90128571D01*
X141786000Y-90200000D01*
X141843142Y-90271428D01*
X142928857Y-91628571D02*
X142357428Y-91628571D01*
X142357428Y-90128571D01*
X143328857Y-91628571D02*
X143328857Y-90128571D01*
X144014571Y-91628571D02*
X143500285Y-90771428D01*
X144014571Y-90128571D02*
X143328857Y-90985714D01*
X140100285Y-94028571D02*
X140100285Y-92528571D01*
X140500285Y-93600000D01*
X140900285Y-92528571D01*
X140900285Y-94028571D01*
X141700285Y-92528571D02*
X141928857Y-92528571D01*
X142043142Y-92600000D01*
X142157428Y-92742857D01*
X142214571Y-93028571D01*
X142214571Y-93528571D01*
X142157428Y-93814285D01*
X142043142Y-93957142D01*
X141928857Y-94028571D01*
X141700285Y-94028571D01*
X141586000Y-93957142D01*
X141471714Y-93814285D01*
X141414571Y-93528571D01*
X141414571Y-93028571D01*
X141471714Y-92742857D01*
X141586000Y-92600000D01*
X141700285Y-92528571D01*
X142671714Y-93957142D02*
X142843142Y-94028571D01*
X143128857Y-94028571D01*
X143243142Y-93957142D01*
X143300285Y-93885714D01*
X143357428Y-93742857D01*
X143357428Y-93600000D01*
X143300285Y-93457142D01*
X143243142Y-93385714D01*
X143128857Y-93314285D01*
X142900285Y-93242857D01*
X142786000Y-93171428D01*
X142728857Y-93100000D01*
X142671714Y-92957142D01*
X142671714Y-92814285D01*
X142728857Y-92671428D01*
X142786000Y-92600000D01*
X142900285Y-92528571D01*
X143186000Y-92528571D01*
X143357428Y-92600000D01*
X143871714Y-94028571D02*
X143871714Y-92528571D01*
X139643142Y-95000000D02*
X139528857Y-94928571D01*
X139357428Y-94928571D01*
X139186000Y-95000000D01*
X139071714Y-95142857D01*
X139014571Y-95285714D01*
X138957428Y-95571428D01*
X138957428Y-95785714D01*
X139014571Y-96071428D01*
X139071714Y-96214285D01*
X139186000Y-96357142D01*
X139357428Y-96428571D01*
X139471714Y-96428571D01*
X139643142Y-96357142D01*
X139700285Y-96285714D01*
X139700285Y-95785714D01*
X139471714Y-95785714D01*
X140214571Y-96428571D02*
X140214571Y-94928571D01*
X140671714Y-94928571D01*
X140786000Y-95000000D01*
X140843142Y-95071428D01*
X140900285Y-95214285D01*
X140900285Y-95428571D01*
X140843142Y-95571428D01*
X140786000Y-95642857D01*
X140671714Y-95714285D01*
X140214571Y-95714285D01*
X141414571Y-96428571D02*
X141414571Y-94928571D01*
X142214571Y-94928571D02*
X142443142Y-94928571D01*
X142557428Y-95000000D01*
X142671714Y-95142857D01*
X142728857Y-95428571D01*
X142728857Y-95928571D01*
X142671714Y-96214285D01*
X142557428Y-96357142D01*
X142443142Y-96428571D01*
X142214571Y-96428571D01*
X142100285Y-96357142D01*
X141986000Y-96214285D01*
X141928857Y-95928571D01*
X141928857Y-95428571D01*
X141986000Y-95142857D01*
X142100285Y-95000000D01*
X142214571Y-94928571D01*
X143871714Y-96428571D02*
X143186000Y-96428571D01*
X143528857Y-96428571D02*
X143528857Y-94928571D01*
X143414571Y-95142857D01*
X143300285Y-95285714D01*
X143186000Y-95357142D01*
X144614571Y-94928571D02*
X144728857Y-94928571D01*
X144843142Y-95000000D01*
X144900285Y-95071428D01*
X144957428Y-95214285D01*
X145014571Y-95500000D01*
X145014571Y-95857142D01*
X144957428Y-96142857D01*
X144900285Y-96285714D01*
X144843142Y-96357142D01*
X144728857Y-96428571D01*
X144614571Y-96428571D01*
X144500285Y-96357142D01*
X144443142Y-96285714D01*
X144386000Y-96142857D01*
X144328857Y-95857142D01*
X144328857Y-95500000D01*
X144386000Y-95214285D01*
X144443142Y-95071428D01*
X144500285Y-95000000D01*
X144614571Y-94928571D01*
X127003428Y-69242857D02*
X126603428Y-69242857D01*
X126603428Y-70028571D02*
X126603428Y-68528571D01*
X127174857Y-68528571D01*
X128203428Y-70028571D02*
X127632000Y-70028571D01*
X127632000Y-68528571D01*
X128546285Y-69600000D02*
X129117714Y-69600000D01*
X128432000Y-70028571D02*
X128832000Y-68528571D01*
X129232000Y-70028571D01*
X129574857Y-69957142D02*
X129746285Y-70028571D01*
X130032000Y-70028571D01*
X130146285Y-69957142D01*
X130203428Y-69885714D01*
X130260571Y-69742857D01*
X130260571Y-69600000D01*
X130203428Y-69457142D01*
X130146285Y-69385714D01*
X130032000Y-69314285D01*
X129803428Y-69242857D01*
X129689142Y-69171428D01*
X129632000Y-69100000D01*
X129574857Y-68957142D01*
X129574857Y-68814285D01*
X129632000Y-68671428D01*
X129689142Y-68600000D01*
X129803428Y-68528571D01*
X130089142Y-68528571D01*
X130260571Y-68600000D01*
X130774857Y-70028571D02*
X130774857Y-68528571D01*
X130774857Y-69242857D02*
X131460571Y-69242857D01*
X131460571Y-70028571D02*
X131460571Y-68528571D01*
X128117714Y-71000000D02*
X128003428Y-70928571D01*
X127832000Y-70928571D01*
X127660571Y-71000000D01*
X127546285Y-71142857D01*
X127489142Y-71285714D01*
X127432000Y-71571428D01*
X127432000Y-71785714D01*
X127489142Y-72071428D01*
X127546285Y-72214285D01*
X127660571Y-72357142D01*
X127832000Y-72428571D01*
X127946285Y-72428571D01*
X128117714Y-72357142D01*
X128174857Y-72285714D01*
X128174857Y-71785714D01*
X127946285Y-71785714D01*
X128689142Y-72428571D02*
X128689142Y-70928571D01*
X129374857Y-72428571D01*
X129374857Y-70928571D01*
X129946285Y-72428571D02*
X129946285Y-70928571D01*
X130232000Y-70928571D01*
X130403428Y-71000000D01*
X130517714Y-71142857D01*
X130574857Y-71285714D01*
X130632000Y-71571428D01*
X130632000Y-71785714D01*
X130574857Y-72071428D01*
X130517714Y-72214285D01*
X130403428Y-72357142D01*
X130232000Y-72428571D01*
X129946285Y-72428571D01*
X127517714Y-73328571D02*
X128203428Y-73328571D01*
X127860571Y-74828571D02*
X127860571Y-73328571D01*
X128489142Y-73328571D02*
X129289142Y-74828571D01*
X129289142Y-73328571D02*
X128489142Y-74828571D01*
X129746285Y-74828571D02*
X129746285Y-73328571D01*
X130032000Y-73328571D01*
X130203428Y-73400000D01*
X130317714Y-73542857D01*
X130374857Y-73685714D01*
X130432000Y-73971428D01*
X130432000Y-74185714D01*
X130374857Y-74471428D01*
X130317714Y-74614285D01*
X130203428Y-74757142D01*
X130032000Y-74828571D01*
X129746285Y-74828571D01*
X128232000Y-77228571D02*
X127832000Y-76514285D01*
X127546285Y-77228571D02*
X127546285Y-75728571D01*
X128003428Y-75728571D01*
X128117714Y-75800000D01*
X128174857Y-75871428D01*
X128232000Y-76014285D01*
X128232000Y-76228571D01*
X128174857Y-76371428D01*
X128117714Y-76442857D01*
X128003428Y-76514285D01*
X127546285Y-76514285D01*
X128632000Y-75728571D02*
X129432000Y-77228571D01*
X129432000Y-75728571D02*
X128632000Y-77228571D01*
X129889142Y-77228571D02*
X129889142Y-75728571D01*
X130174857Y-75728571D01*
X130346285Y-75800000D01*
X130460571Y-75942857D01*
X130517714Y-76085714D01*
X130574857Y-76371428D01*
X130574857Y-76585714D01*
X130517714Y-76871428D01*
X130460571Y-77014285D01*
X130346285Y-77157142D01*
X130174857Y-77228571D01*
X129889142Y-77228571D01*
X127260571Y-78200000D02*
X127146285Y-78128571D01*
X126974857Y-78128571D01*
X126803428Y-78200000D01*
X126689142Y-78342857D01*
X126632000Y-78485714D01*
X126574857Y-78771428D01*
X126574857Y-78985714D01*
X126632000Y-79271428D01*
X126689142Y-79414285D01*
X126803428Y-79557142D01*
X126974857Y-79628571D01*
X127089142Y-79628571D01*
X127260571Y-79557142D01*
X127317714Y-79485714D01*
X127317714Y-78985714D01*
X127089142Y-78985714D01*
X127832000Y-79628571D02*
X127832000Y-78128571D01*
X128289142Y-78128571D01*
X128403428Y-78200000D01*
X128460571Y-78271428D01*
X128517714Y-78414285D01*
X128517714Y-78628571D01*
X128460571Y-78771428D01*
X128403428Y-78842857D01*
X128289142Y-78914285D01*
X127832000Y-78914285D01*
X129032000Y-79628571D02*
X129032000Y-78128571D01*
X129832000Y-78128571D02*
X130060571Y-78128571D01*
X130174857Y-78200000D01*
X130289142Y-78342857D01*
X130346285Y-78628571D01*
X130346285Y-79128571D01*
X130289142Y-79414285D01*
X130174857Y-79557142D01*
X130060571Y-79628571D01*
X129832000Y-79628571D01*
X129717714Y-79557142D01*
X129603428Y-79414285D01*
X129546285Y-79128571D01*
X129546285Y-78628571D01*
X129603428Y-78342857D01*
X129717714Y-78200000D01*
X129832000Y-78128571D01*
X131432000Y-78128571D02*
X130860571Y-78128571D01*
X130803428Y-78842857D01*
X130860571Y-78771428D01*
X130974857Y-78700000D01*
X131260571Y-78700000D01*
X131374857Y-78771428D01*
X131432000Y-78842857D01*
X131489142Y-78985714D01*
X131489142Y-79342857D01*
X131432000Y-79485714D01*
X131374857Y-79557142D01*
X131260571Y-79628571D01*
X130974857Y-79628571D01*
X130860571Y-79557142D01*
X130803428Y-79485714D01*
X127260571Y-80600000D02*
X127146285Y-80528571D01*
X126974857Y-80528571D01*
X126803428Y-80600000D01*
X126689142Y-80742857D01*
X126632000Y-80885714D01*
X126574857Y-81171428D01*
X126574857Y-81385714D01*
X126632000Y-81671428D01*
X126689142Y-81814285D01*
X126803428Y-81957142D01*
X126974857Y-82028571D01*
X127089142Y-82028571D01*
X127260571Y-81957142D01*
X127317714Y-81885714D01*
X127317714Y-81385714D01*
X127089142Y-81385714D01*
X127832000Y-82028571D02*
X127832000Y-80528571D01*
X128289142Y-80528571D01*
X128403428Y-80600000D01*
X128460571Y-80671428D01*
X128517714Y-80814285D01*
X128517714Y-81028571D01*
X128460571Y-81171428D01*
X128403428Y-81242857D01*
X128289142Y-81314285D01*
X127832000Y-81314285D01*
X129032000Y-82028571D02*
X129032000Y-80528571D01*
X129832000Y-80528571D02*
X130060571Y-80528571D01*
X130174857Y-80600000D01*
X130289142Y-80742857D01*
X130346285Y-81028571D01*
X130346285Y-81528571D01*
X130289142Y-81814285D01*
X130174857Y-81957142D01*
X130060571Y-82028571D01*
X129832000Y-82028571D01*
X129717714Y-81957142D01*
X129603428Y-81814285D01*
X129546285Y-81528571D01*
X129546285Y-81028571D01*
X129603428Y-80742857D01*
X129717714Y-80600000D01*
X129832000Y-80528571D01*
X131374857Y-81028571D02*
X131374857Y-82028571D01*
X131089142Y-80457142D02*
X130803428Y-81528571D01*
X131546285Y-81528571D01*
X127260571Y-83000000D02*
X127146285Y-82928571D01*
X126974857Y-82928571D01*
X126803428Y-83000000D01*
X126689142Y-83142857D01*
X126632000Y-83285714D01*
X126574857Y-83571428D01*
X126574857Y-83785714D01*
X126632000Y-84071428D01*
X126689142Y-84214285D01*
X126803428Y-84357142D01*
X126974857Y-84428571D01*
X127089142Y-84428571D01*
X127260571Y-84357142D01*
X127317714Y-84285714D01*
X127317714Y-83785714D01*
X127089142Y-83785714D01*
X127832000Y-84428571D02*
X127832000Y-82928571D01*
X128289142Y-82928571D01*
X128403428Y-83000000D01*
X128460571Y-83071428D01*
X128517714Y-83214285D01*
X128517714Y-83428571D01*
X128460571Y-83571428D01*
X128403428Y-83642857D01*
X128289142Y-83714285D01*
X127832000Y-83714285D01*
X129032000Y-84428571D02*
X129032000Y-82928571D01*
X129832000Y-82928571D02*
X130060571Y-82928571D01*
X130174857Y-83000000D01*
X130289142Y-83142857D01*
X130346285Y-83428571D01*
X130346285Y-83928571D01*
X130289142Y-84214285D01*
X130174857Y-84357142D01*
X130060571Y-84428571D01*
X129832000Y-84428571D01*
X129717714Y-84357142D01*
X129603428Y-84214285D01*
X129546285Y-83928571D01*
X129546285Y-83428571D01*
X129603428Y-83142857D01*
X129717714Y-83000000D01*
X129832000Y-82928571D01*
X131089142Y-82928571D02*
X131203428Y-82928571D01*
X131317714Y-83000000D01*
X131374857Y-83071428D01*
X131432000Y-83214285D01*
X131489142Y-83500000D01*
X131489142Y-83857142D01*
X131432000Y-84142857D01*
X131374857Y-84285714D01*
X131317714Y-84357142D01*
X131203428Y-84428571D01*
X131089142Y-84428571D01*
X130974857Y-84357142D01*
X130917714Y-84285714D01*
X130860571Y-84142857D01*
X130803428Y-83857142D01*
X130803428Y-83500000D01*
X130860571Y-83214285D01*
X130917714Y-83071428D01*
X130974857Y-83000000D01*
X131089142Y-82928571D01*
X127260571Y-85400000D02*
X127146285Y-85328571D01*
X126974857Y-85328571D01*
X126803428Y-85400000D01*
X126689142Y-85542857D01*
X126632000Y-85685714D01*
X126574857Y-85971428D01*
X126574857Y-86185714D01*
X126632000Y-86471428D01*
X126689142Y-86614285D01*
X126803428Y-86757142D01*
X126974857Y-86828571D01*
X127089142Y-86828571D01*
X127260571Y-86757142D01*
X127317714Y-86685714D01*
X127317714Y-86185714D01*
X127089142Y-86185714D01*
X127832000Y-86828571D02*
X127832000Y-85328571D01*
X128289142Y-85328571D01*
X128403428Y-85400000D01*
X128460571Y-85471428D01*
X128517714Y-85614285D01*
X128517714Y-85828571D01*
X128460571Y-85971428D01*
X128403428Y-86042857D01*
X128289142Y-86114285D01*
X127832000Y-86114285D01*
X129032000Y-86828571D02*
X129032000Y-85328571D01*
X129832000Y-85328571D02*
X130060571Y-85328571D01*
X130174857Y-85400000D01*
X130289142Y-85542857D01*
X130346285Y-85828571D01*
X130346285Y-86328571D01*
X130289142Y-86614285D01*
X130174857Y-86757142D01*
X130060571Y-86828571D01*
X129832000Y-86828571D01*
X129717714Y-86757142D01*
X129603428Y-86614285D01*
X129546285Y-86328571D01*
X129546285Y-85828571D01*
X129603428Y-85542857D01*
X129717714Y-85400000D01*
X129832000Y-85328571D01*
X130803428Y-85471428D02*
X130860571Y-85400000D01*
X130974857Y-85328571D01*
X131260571Y-85328571D01*
X131374857Y-85400000D01*
X131432000Y-85471428D01*
X131489142Y-85614285D01*
X131489142Y-85757142D01*
X131432000Y-85971428D01*
X130746285Y-86828571D01*
X131489142Y-86828571D01*
X126689142Y-87800000D02*
X126574857Y-87728571D01*
X126403428Y-87728571D01*
X126232000Y-87800000D01*
X126117714Y-87942857D01*
X126060571Y-88085714D01*
X126003428Y-88371428D01*
X126003428Y-88585714D01*
X126060571Y-88871428D01*
X126117714Y-89014285D01*
X126232000Y-89157142D01*
X126403428Y-89228571D01*
X126517714Y-89228571D01*
X126689142Y-89157142D01*
X126746285Y-89085714D01*
X126746285Y-88585714D01*
X126517714Y-88585714D01*
X127260571Y-89228571D02*
X127260571Y-87728571D01*
X127717714Y-87728571D01*
X127832000Y-87800000D01*
X127889142Y-87871428D01*
X127946285Y-88014285D01*
X127946285Y-88228571D01*
X127889142Y-88371428D01*
X127832000Y-88442857D01*
X127717714Y-88514285D01*
X127260571Y-88514285D01*
X128460571Y-89228571D02*
X128460571Y-87728571D01*
X129260571Y-87728571D02*
X129489142Y-87728571D01*
X129603428Y-87800000D01*
X129717714Y-87942857D01*
X129774857Y-88228571D01*
X129774857Y-88728571D01*
X129717714Y-89014285D01*
X129603428Y-89157142D01*
X129489142Y-89228571D01*
X129260571Y-89228571D01*
X129146285Y-89157142D01*
X129032000Y-89014285D01*
X128974857Y-88728571D01*
X128974857Y-88228571D01*
X129032000Y-87942857D01*
X129146285Y-87800000D01*
X129260571Y-87728571D01*
X130917714Y-89228571D02*
X130232000Y-89228571D01*
X130574857Y-89228571D02*
X130574857Y-87728571D01*
X130460571Y-87942857D01*
X130346285Y-88085714D01*
X130232000Y-88157142D01*
X132003428Y-87728571D02*
X131432000Y-87728571D01*
X131374857Y-88442857D01*
X131432000Y-88371428D01*
X131546285Y-88300000D01*
X131832000Y-88300000D01*
X131946285Y-88371428D01*
X132003428Y-88442857D01*
X132060571Y-88585714D01*
X132060571Y-88942857D01*
X132003428Y-89085714D01*
X131946285Y-89157142D01*
X131832000Y-89228571D01*
X131546285Y-89228571D01*
X131432000Y-89157142D01*
X131374857Y-89085714D01*
X127260571Y-90200000D02*
X127146285Y-90128571D01*
X126974857Y-90128571D01*
X126803428Y-90200000D01*
X126689142Y-90342857D01*
X126632000Y-90485714D01*
X126574857Y-90771428D01*
X126574857Y-90985714D01*
X126632000Y-91271428D01*
X126689142Y-91414285D01*
X126803428Y-91557142D01*
X126974857Y-91628571D01*
X127089142Y-91628571D01*
X127260571Y-91557142D01*
X127317714Y-91485714D01*
X127317714Y-90985714D01*
X127089142Y-90985714D01*
X127832000Y-91628571D02*
X127832000Y-90128571D01*
X128289142Y-90128571D01*
X128403428Y-90200000D01*
X128460571Y-90271428D01*
X128517714Y-90414285D01*
X128517714Y-90628571D01*
X128460571Y-90771428D01*
X128403428Y-90842857D01*
X128289142Y-90914285D01*
X127832000Y-90914285D01*
X129032000Y-91628571D02*
X129032000Y-90128571D01*
X129832000Y-90128571D02*
X130060571Y-90128571D01*
X130174857Y-90200000D01*
X130289142Y-90342857D01*
X130346285Y-90628571D01*
X130346285Y-91128571D01*
X130289142Y-91414285D01*
X130174857Y-91557142D01*
X130060571Y-91628571D01*
X129832000Y-91628571D01*
X129717714Y-91557142D01*
X129603428Y-91414285D01*
X129546285Y-91128571D01*
X129546285Y-90628571D01*
X129603428Y-90342857D01*
X129717714Y-90200000D01*
X129832000Y-90128571D01*
X130917714Y-91628571D02*
X131146285Y-91628571D01*
X131260571Y-91557142D01*
X131317714Y-91485714D01*
X131432000Y-91271428D01*
X131489142Y-90985714D01*
X131489142Y-90414285D01*
X131432000Y-90271428D01*
X131374857Y-90200000D01*
X131260571Y-90128571D01*
X131032000Y-90128571D01*
X130917714Y-90200000D01*
X130860571Y-90271428D01*
X130803428Y-90414285D01*
X130803428Y-90771428D01*
X130860571Y-90914285D01*
X130917714Y-90985714D01*
X131032000Y-91057142D01*
X131260571Y-91057142D01*
X131374857Y-90985714D01*
X131432000Y-90914285D01*
X131489142Y-90771428D01*
X127146285Y-94028571D02*
X127146285Y-92528571D01*
X127546285Y-93600000D01*
X127946285Y-92528571D01*
X127946285Y-94028571D01*
X128517714Y-94028571D02*
X128517714Y-92528571D01*
X129032000Y-93957142D02*
X129203428Y-94028571D01*
X129489142Y-94028571D01*
X129603428Y-93957142D01*
X129660571Y-93885714D01*
X129717714Y-93742857D01*
X129717714Y-93600000D01*
X129660571Y-93457142D01*
X129603428Y-93385714D01*
X129489142Y-93314285D01*
X129260571Y-93242857D01*
X129146285Y-93171428D01*
X129089142Y-93100000D01*
X129032000Y-92957142D01*
X129032000Y-92814285D01*
X129089142Y-92671428D01*
X129146285Y-92600000D01*
X129260571Y-92528571D01*
X129546285Y-92528571D01*
X129717714Y-92600000D01*
X130460571Y-92528571D02*
X130689142Y-92528571D01*
X130803428Y-92600000D01*
X130917714Y-92742857D01*
X130974857Y-93028571D01*
X130974857Y-93528571D01*
X130917714Y-93814285D01*
X130803428Y-93957142D01*
X130689142Y-94028571D01*
X130460571Y-94028571D01*
X130346285Y-93957142D01*
X130232000Y-93814285D01*
X130174857Y-93528571D01*
X130174857Y-93028571D01*
X130232000Y-92742857D01*
X130346285Y-92600000D01*
X130460571Y-92528571D01*
X128260571Y-96285714D02*
X128203428Y-96357142D01*
X128032000Y-96428571D01*
X127917714Y-96428571D01*
X127746285Y-96357142D01*
X127632000Y-96214285D01*
X127574857Y-96071428D01*
X127517714Y-95785714D01*
X127517714Y-95571428D01*
X127574857Y-95285714D01*
X127632000Y-95142857D01*
X127746285Y-95000000D01*
X127917714Y-94928571D01*
X128032000Y-94928571D01*
X128203428Y-95000000D01*
X128260571Y-95071428D01*
X128717714Y-96357142D02*
X128889142Y-96428571D01*
X129174857Y-96428571D01*
X129289142Y-96357142D01*
X129346285Y-96285714D01*
X129403428Y-96142857D01*
X129403428Y-96000000D01*
X129346285Y-95857142D01*
X129289142Y-95785714D01*
X129174857Y-95714285D01*
X128946285Y-95642857D01*
X128832000Y-95571428D01*
X128774857Y-95500000D01*
X128717714Y-95357142D01*
X128717714Y-95214285D01*
X128774857Y-95071428D01*
X128832000Y-95000000D01*
X128946285Y-94928571D01*
X129232000Y-94928571D01*
X129403428Y-95000000D01*
X130146285Y-94928571D02*
X130260571Y-94928571D01*
X130374857Y-95000000D01*
X130432000Y-95071428D01*
X130489142Y-95214285D01*
X130546285Y-95500000D01*
X130546285Y-95857142D01*
X130489142Y-96142857D01*
X130432000Y-96285714D01*
X130374857Y-96357142D01*
X130260571Y-96428571D01*
X130146285Y-96428571D01*
X130032000Y-96357142D01*
X129974857Y-96285714D01*
X129917714Y-96142857D01*
X129860571Y-95857142D01*
X129860571Y-95500000D01*
X129917714Y-95214285D01*
X129974857Y-95071428D01*
X130032000Y-95000000D01*
X130146285Y-94928571D01*
D11*
%TO.C,J2*%
X116272000Y-67250000D02*
X117602000Y-67250000D01*
X116272000Y-68580000D02*
X116272000Y-67250000D01*
X116272000Y-69850000D02*
X118932000Y-69850000D01*
X118932000Y-69850000D02*
X118932000Y-97850000D01*
X116272000Y-69850000D02*
X116272000Y-97850000D01*
X116272000Y-97850000D02*
X118932000Y-97850000D01*
%TO.C,J1*%
X156912000Y-67250000D02*
X158242000Y-67250000D01*
X156912000Y-68580000D02*
X156912000Y-67250000D01*
X156912000Y-69850000D02*
X159572000Y-69850000D01*
X159572000Y-69850000D02*
X159572000Y-97850000D01*
X156912000Y-69850000D02*
X156912000Y-97850000D01*
X156912000Y-97850000D02*
X159572000Y-97850000D01*
%TO.C,J2*%
D10*
X121450666Y-74128380D02*
X121450666Y-74842666D01*
X121403047Y-74985523D01*
X121307809Y-75080761D01*
X121164952Y-75128380D01*
X121069714Y-75128380D01*
X121879238Y-74223619D02*
X121926857Y-74176000D01*
X122022095Y-74128380D01*
X122260190Y-74128380D01*
X122355428Y-74176000D01*
X122403047Y-74223619D01*
X122450666Y-74318857D01*
X122450666Y-74414095D01*
X122403047Y-74556952D01*
X121831619Y-75128380D01*
X122450666Y-75128380D01*
%TO.C,J1*%
X155114666Y-75398380D02*
X155114666Y-76112666D01*
X155067047Y-76255523D01*
X154971809Y-76350761D01*
X154828952Y-76398380D01*
X154733714Y-76398380D01*
X156114666Y-76398380D02*
X155543238Y-76398380D01*
X155828952Y-76398380D02*
X155828952Y-75398380D01*
X155733714Y-75541238D01*
X155638476Y-75636476D01*
X155543238Y-75684095D01*
%TD*%
M02*
