%TF.GenerationSoftware,KiCad,Pcbnew,5.1.8*%
%TF.CreationDate,2020-12-08T00:01:30+01:00*%
%TF.ProjectId,ESP8266_base_vreg,45535038-3236-4365-9f62-6173655f7672,rev?*%
%TF.SameCoordinates,Original*%
%TF.FileFunction,Copper,L2,Bot*%
%TF.FilePolarity,Positive*%
%FSLAX46Y46*%
G04 Gerber Fmt 4.6, Leading zero omitted, Abs format (unit mm)*
G04 Created by KiCad (PCBNEW 5.1.8) date 2020-12-08 00:01:30*
%MOMM*%
%LPD*%
G01*
G04 APERTURE LIST*
%TA.AperFunction,SMDPad,CuDef*%
%ADD10R,0.650000X1.220000*%
%TD*%
%TA.AperFunction,ComponentPad*%
%ADD11O,1.700000X1.700000*%
%TD*%
%TA.AperFunction,ComponentPad*%
%ADD12R,1.700000X1.700000*%
%TD*%
%TA.AperFunction,SMDPad,CuDef*%
%ADD13R,2.500000X1.000000*%
%TD*%
%TA.AperFunction,SMDPad,CuDef*%
%ADD14R,1.000000X1.800000*%
%TD*%
%TA.AperFunction,ViaPad*%
%ADD15C,0.800000*%
%TD*%
%TA.AperFunction,Conductor*%
%ADD16C,0.250000*%
%TD*%
G04 APERTURE END LIST*
%TO.P,C3,2*%
%TO.N,GND*%
%TA.AperFunction,SMDPad,CuDef*%
G36*
G01*
X146795500Y-70795000D02*
X146320500Y-70795000D01*
G75*
G02*
X146083000Y-70557500I0J237500D01*
G01*
X146083000Y-69957500D01*
G75*
G02*
X146320500Y-69720000I237500J0D01*
G01*
X146795500Y-69720000D01*
G75*
G02*
X147033000Y-69957500I0J-237500D01*
G01*
X147033000Y-70557500D01*
G75*
G02*
X146795500Y-70795000I-237500J0D01*
G01*
G37*
%TD.AperFunction*%
%TO.P,C3,1*%
%TO.N,Net-(C3-Pad1)*%
%TA.AperFunction,SMDPad,CuDef*%
G36*
G01*
X146795500Y-72520000D02*
X146320500Y-72520000D01*
G75*
G02*
X146083000Y-72282500I0J237500D01*
G01*
X146083000Y-71682500D01*
G75*
G02*
X146320500Y-71445000I237500J0D01*
G01*
X146795500Y-71445000D01*
G75*
G02*
X147033000Y-71682500I0J-237500D01*
G01*
X147033000Y-72282500D01*
G75*
G02*
X146795500Y-72520000I-237500J0D01*
G01*
G37*
%TD.AperFunction*%
%TD*%
D10*
%TO.P,U1,1*%
%TO.N,Net-(C3-Pad1)*%
X150686000Y-79527000D03*
%TO.P,U1,2*%
%TO.N,GND*%
X151626000Y-79527000D03*
%TO.P,U1,3*%
%TO.N,Net-(R1-Pad2)*%
X152566000Y-79527000D03*
%TO.P,U1,4*%
%TO.N,N/C*%
X152566000Y-82017000D03*
%TO.P,U1,5*%
%TO.N,Net-(C1-Pad1)*%
X150686000Y-82017000D03*
%TD*%
%TO.P,R7,2*%
%TO.N,Net-(ESP1-Pad1)*%
%TA.AperFunction,SMDPad,CuDef*%
G36*
G01*
X146950001Y-76100000D02*
X146049999Y-76100000D01*
G75*
G02*
X145800000Y-75850001I0J249999D01*
G01*
X145800000Y-75149999D01*
G75*
G02*
X146049999Y-74900000I249999J0D01*
G01*
X146950001Y-74900000D01*
G75*
G02*
X147200000Y-75149999I0J-249999D01*
G01*
X147200000Y-75850001D01*
G75*
G02*
X146950001Y-76100000I-249999J0D01*
G01*
G37*
%TD.AperFunction*%
%TO.P,R7,1*%
%TO.N,Net-(C1-Pad1)*%
%TA.AperFunction,SMDPad,CuDef*%
G36*
G01*
X146950001Y-78100000D02*
X146049999Y-78100000D01*
G75*
G02*
X145800000Y-77850001I0J249999D01*
G01*
X145800000Y-77149999D01*
G75*
G02*
X146049999Y-76900000I249999J0D01*
G01*
X146950001Y-76900000D01*
G75*
G02*
X147200000Y-77149999I0J-249999D01*
G01*
X147200000Y-77850001D01*
G75*
G02*
X146950001Y-78100000I-249999J0D01*
G01*
G37*
%TD.AperFunction*%
%TD*%
%TO.P,R6,2*%
%TO.N,Net-(J2-Pad1)*%
%TA.AperFunction,SMDPad,CuDef*%
G36*
G01*
X123850000Y-81049999D02*
X123850000Y-81950001D01*
G75*
G02*
X123600001Y-82200000I-249999J0D01*
G01*
X122899999Y-82200000D01*
G75*
G02*
X122650000Y-81950001I0J249999D01*
G01*
X122650000Y-81049999D01*
G75*
G02*
X122899999Y-80800000I249999J0D01*
G01*
X123600001Y-80800000D01*
G75*
G02*
X123850000Y-81049999I0J-249999D01*
G01*
G37*
%TD.AperFunction*%
%TO.P,R6,1*%
%TO.N,Net-(ESP1-Pad18)*%
%TA.AperFunction,SMDPad,CuDef*%
G36*
G01*
X125850000Y-81049999D02*
X125850000Y-81950001D01*
G75*
G02*
X125600001Y-82200000I-249999J0D01*
G01*
X124899999Y-82200000D01*
G75*
G02*
X124650000Y-81950001I0J249999D01*
G01*
X124650000Y-81049999D01*
G75*
G02*
X124899999Y-80800000I249999J0D01*
G01*
X125600001Y-80800000D01*
G75*
G02*
X125850000Y-81049999I0J-249999D01*
G01*
G37*
%TD.AperFunction*%
%TD*%
%TO.P,R5,2*%
%TO.N,Net-(ESP1-Pad16)*%
%TA.AperFunction,SMDPad,CuDef*%
G36*
G01*
X125700001Y-89350000D02*
X124799999Y-89350000D01*
G75*
G02*
X124550000Y-89100001I0J249999D01*
G01*
X124550000Y-88399999D01*
G75*
G02*
X124799999Y-88150000I249999J0D01*
G01*
X125700001Y-88150000D01*
G75*
G02*
X125950000Y-88399999I0J-249999D01*
G01*
X125950000Y-89100001D01*
G75*
G02*
X125700001Y-89350000I-249999J0D01*
G01*
G37*
%TD.AperFunction*%
%TO.P,R5,1*%
%TO.N,GND*%
%TA.AperFunction,SMDPad,CuDef*%
G36*
G01*
X125700001Y-91350000D02*
X124799999Y-91350000D01*
G75*
G02*
X124550000Y-91100001I0J249999D01*
G01*
X124550000Y-90399999D01*
G75*
G02*
X124799999Y-90150000I249999J0D01*
G01*
X125700001Y-90150000D01*
G75*
G02*
X125950000Y-90399999I0J-249999D01*
G01*
X125950000Y-91100001D01*
G75*
G02*
X125700001Y-91350000I-249999J0D01*
G01*
G37*
%TD.AperFunction*%
%TD*%
%TO.P,R4,2*%
%TO.N,Net-(ESP1-Pad18)*%
%TA.AperFunction,SMDPad,CuDef*%
G36*
G01*
X122549999Y-86150000D02*
X123450001Y-86150000D01*
G75*
G02*
X123700000Y-86399999I0J-249999D01*
G01*
X123700000Y-87100001D01*
G75*
G02*
X123450001Y-87350000I-249999J0D01*
G01*
X122549999Y-87350000D01*
G75*
G02*
X122300000Y-87100001I0J249999D01*
G01*
X122300000Y-86399999D01*
G75*
G02*
X122549999Y-86150000I249999J0D01*
G01*
G37*
%TD.AperFunction*%
%TO.P,R4,1*%
%TO.N,Net-(C1-Pad1)*%
%TA.AperFunction,SMDPad,CuDef*%
G36*
G01*
X122549999Y-84150000D02*
X123450001Y-84150000D01*
G75*
G02*
X123700000Y-84399999I0J-249999D01*
G01*
X123700000Y-85100001D01*
G75*
G02*
X123450001Y-85350000I-249999J0D01*
G01*
X122549999Y-85350000D01*
G75*
G02*
X122300000Y-85100001I0J249999D01*
G01*
X122300000Y-84399999D01*
G75*
G02*
X122549999Y-84150000I249999J0D01*
G01*
G37*
%TD.AperFunction*%
%TD*%
%TO.P,R3,2*%
%TO.N,Net-(C1-Pad1)*%
%TA.AperFunction,SMDPad,CuDef*%
G36*
G01*
X125700001Y-85350000D02*
X124799999Y-85350000D01*
G75*
G02*
X124550000Y-85100001I0J249999D01*
G01*
X124550000Y-84399999D01*
G75*
G02*
X124799999Y-84150000I249999J0D01*
G01*
X125700001Y-84150000D01*
G75*
G02*
X125950000Y-84399999I0J-249999D01*
G01*
X125950000Y-85100001D01*
G75*
G02*
X125700001Y-85350000I-249999J0D01*
G01*
G37*
%TD.AperFunction*%
%TO.P,R3,1*%
%TO.N,Net-(ESP1-Pad17)*%
%TA.AperFunction,SMDPad,CuDef*%
G36*
G01*
X125700001Y-87350000D02*
X124799999Y-87350000D01*
G75*
G02*
X124550000Y-87100001I0J249999D01*
G01*
X124550000Y-86399999D01*
G75*
G02*
X124799999Y-86150000I249999J0D01*
G01*
X125700001Y-86150000D01*
G75*
G02*
X125950000Y-86399999I0J-249999D01*
G01*
X125950000Y-87100001D01*
G75*
G02*
X125700001Y-87350000I-249999J0D01*
G01*
G37*
%TD.AperFunction*%
%TD*%
%TO.P,R2,2*%
%TO.N,Net-(ESP1-Pad3)*%
%TA.AperFunction,SMDPad,CuDef*%
G36*
G01*
X146754001Y-80372000D02*
X145853999Y-80372000D01*
G75*
G02*
X145604000Y-80122001I0J249999D01*
G01*
X145604000Y-79421999D01*
G75*
G02*
X145853999Y-79172000I249999J0D01*
G01*
X146754001Y-79172000D01*
G75*
G02*
X147004000Y-79421999I0J-249999D01*
G01*
X147004000Y-80122001D01*
G75*
G02*
X146754001Y-80372000I-249999J0D01*
G01*
G37*
%TD.AperFunction*%
%TO.P,R2,1*%
%TO.N,Net-(C1-Pad1)*%
%TA.AperFunction,SMDPad,CuDef*%
G36*
G01*
X146754001Y-82372000D02*
X145853999Y-82372000D01*
G75*
G02*
X145604000Y-82122001I0J249999D01*
G01*
X145604000Y-81421999D01*
G75*
G02*
X145853999Y-81172000I249999J0D01*
G01*
X146754001Y-81172000D01*
G75*
G02*
X147004000Y-81421999I0J-249999D01*
G01*
X147004000Y-82122001D01*
G75*
G02*
X146754001Y-82372000I-249999J0D01*
G01*
G37*
%TD.AperFunction*%
%TD*%
%TO.P,R1,2*%
%TO.N,Net-(R1-Pad2)*%
%TA.AperFunction,SMDPad,CuDef*%
G36*
G01*
X148913001Y-80372000D02*
X148012999Y-80372000D01*
G75*
G02*
X147763000Y-80122001I0J249999D01*
G01*
X147763000Y-79421999D01*
G75*
G02*
X148012999Y-79172000I249999J0D01*
G01*
X148913001Y-79172000D01*
G75*
G02*
X149163000Y-79421999I0J-249999D01*
G01*
X149163000Y-80122001D01*
G75*
G02*
X148913001Y-80372000I-249999J0D01*
G01*
G37*
%TD.AperFunction*%
%TO.P,R1,1*%
%TO.N,Net-(C3-Pad1)*%
%TA.AperFunction,SMDPad,CuDef*%
G36*
G01*
X148913001Y-82372000D02*
X148012999Y-82372000D01*
G75*
G02*
X147763000Y-82122001I0J249999D01*
G01*
X147763000Y-81421999D01*
G75*
G02*
X148012999Y-81172000I249999J0D01*
G01*
X148913001Y-81172000D01*
G75*
G02*
X149163000Y-81421999I0J-249999D01*
G01*
X149163000Y-82122001D01*
G75*
G02*
X148913001Y-82372000I-249999J0D01*
G01*
G37*
%TD.AperFunction*%
%TD*%
D11*
%TO.P,J2,12*%
%TO.N,Net-(ESP1-Pad14)*%
X117602000Y-96520000D03*
%TO.P,J2,11*%
%TO.N,Net-(ESP1-Pad13)*%
X117602000Y-93980000D03*
%TO.P,J2,10*%
%TO.N,Net-(ESP1-Pad12)*%
X117602000Y-91440000D03*
%TO.P,J2,9*%
%TO.N,Net-(ESP1-Pad16)*%
X117602000Y-88900000D03*
%TO.P,J2,8*%
%TO.N,Net-(ESP1-Pad17)*%
X117602000Y-86360000D03*
%TO.P,J2,7*%
%TO.N,Net-(ESP1-Pad18)*%
X117602000Y-83820000D03*
%TO.P,J2,6*%
%TO.N,Net-(ESP1-Pad19)*%
X117602000Y-81280000D03*
%TO.P,J2,5*%
%TO.N,Net-(ESP1-Pad20)*%
X117602000Y-78740000D03*
%TO.P,J2,4*%
%TO.N,Net-(ESP1-Pad21)*%
X117602000Y-76200000D03*
%TO.P,J2,3*%
%TO.N,Net-(ESP1-Pad22)*%
X117602000Y-73660000D03*
%TO.P,J2,2*%
%TO.N,GND*%
X117602000Y-71120000D03*
D12*
%TO.P,J2,1*%
%TO.N,Net-(J2-Pad1)*%
X117602000Y-68580000D03*
%TD*%
D11*
%TO.P,J1,12*%
%TO.N,Net-(ESP1-Pad11)*%
X158242000Y-96520000D03*
%TO.P,J1,11*%
%TO.N,Net-(ESP1-Pad10)*%
X158242000Y-93980000D03*
%TO.P,J1,10*%
%TO.N,Net-(ESP1-Pad9)*%
X158242000Y-91440000D03*
%TO.P,J1,9*%
%TO.N,Net-(C1-Pad1)*%
X158242000Y-88900000D03*
%TO.P,J1,8*%
%TO.N,Net-(ESP1-Pad7)*%
X158242000Y-86360000D03*
%TO.P,J1,7*%
%TO.N,Net-(ESP1-Pad6)*%
X158242000Y-83820000D03*
%TO.P,J1,6*%
%TO.N,Net-(ESP1-Pad5)*%
X158242000Y-81280000D03*
%TO.P,J1,5*%
%TO.N,Net-(ESP1-Pad4)*%
X158242000Y-78740000D03*
%TO.P,J1,4*%
%TO.N,Net-(ESP1-Pad2)*%
X158242000Y-76200000D03*
%TO.P,J1,3*%
%TO.N,Net-(ESP1-Pad1)*%
X158242000Y-73660000D03*
%TO.P,J1,2*%
%TO.N,GND*%
X158242000Y-71120000D03*
D12*
%TO.P,J1,1*%
%TO.N,VCC*%
X158242000Y-68580000D03*
%TD*%
%TO.P,F1,2*%
%TO.N,Net-(C3-Pad1)*%
%TA.AperFunction,SMDPad,CuDef*%
G36*
G01*
X149809000Y-74749999D02*
X149809000Y-77650001D01*
G75*
G02*
X149559001Y-77900000I-249999J0D01*
G01*
X148933999Y-77900000D01*
G75*
G02*
X148684000Y-77650001I0J249999D01*
G01*
X148684000Y-74749999D01*
G75*
G02*
X148933999Y-74500000I249999J0D01*
G01*
X149559001Y-74500000D01*
G75*
G02*
X149809000Y-74749999I0J-249999D01*
G01*
G37*
%TD.AperFunction*%
%TO.P,F1,1*%
%TO.N,VCC*%
%TA.AperFunction,SMDPad,CuDef*%
G36*
G01*
X154084000Y-74749999D02*
X154084000Y-77650001D01*
G75*
G02*
X153834001Y-77900000I-249999J0D01*
G01*
X153208999Y-77900000D01*
G75*
G02*
X152959000Y-77650001I0J249999D01*
G01*
X152959000Y-74749999D01*
G75*
G02*
X153208999Y-74500000I249999J0D01*
G01*
X153834001Y-74500000D01*
G75*
G02*
X154084000Y-74749999I0J-249999D01*
G01*
G37*
%TD.AperFunction*%
%TD*%
D13*
%TO.P,ESP1,22*%
%TO.N,Net-(ESP1-Pad22)*%
X128150000Y-78250000D03*
%TO.P,ESP1,21*%
%TO.N,Net-(ESP1-Pad21)*%
X128150000Y-80250000D03*
%TO.P,ESP1,20*%
%TO.N,Net-(ESP1-Pad20)*%
X128150000Y-82250000D03*
%TO.P,ESP1,19*%
%TO.N,Net-(ESP1-Pad19)*%
X128150000Y-84250000D03*
%TO.P,ESP1,18*%
%TO.N,Net-(ESP1-Pad18)*%
X128150000Y-86250000D03*
%TO.P,ESP1,17*%
%TO.N,Net-(ESP1-Pad17)*%
X128150000Y-88250000D03*
%TO.P,ESP1,16*%
%TO.N,Net-(ESP1-Pad16)*%
X128150000Y-90250000D03*
%TO.P,ESP1,15*%
%TO.N,GND*%
X128150000Y-92250000D03*
D14*
%TO.P,ESP1,14*%
%TO.N,Net-(ESP1-Pad14)*%
X130750000Y-93750000D03*
%TO.P,ESP1,13*%
%TO.N,Net-(ESP1-Pad13)*%
X132750000Y-93750000D03*
%TO.P,ESP1,12*%
%TO.N,Net-(ESP1-Pad12)*%
X134750000Y-93750000D03*
%TO.P,ESP1,11*%
%TO.N,Net-(ESP1-Pad11)*%
X136750000Y-93750000D03*
%TO.P,ESP1,10*%
%TO.N,Net-(ESP1-Pad10)*%
X138750000Y-93750000D03*
%TO.P,ESP1,9*%
%TO.N,Net-(ESP1-Pad9)*%
X140750000Y-93750000D03*
D13*
%TO.P,ESP1,8*%
%TO.N,Net-(C1-Pad1)*%
X143350000Y-92250000D03*
%TO.P,ESP1,7*%
%TO.N,Net-(ESP1-Pad7)*%
X143350000Y-90250000D03*
%TO.P,ESP1,6*%
%TO.N,Net-(ESP1-Pad6)*%
X143350000Y-88250000D03*
%TO.P,ESP1,5*%
%TO.N,Net-(ESP1-Pad5)*%
X143350000Y-86250000D03*
%TO.P,ESP1,4*%
%TO.N,Net-(ESP1-Pad4)*%
X143350000Y-84250000D03*
%TO.P,ESP1,3*%
%TO.N,Net-(ESP1-Pad3)*%
X143350000Y-82250000D03*
%TO.P,ESP1,2*%
%TO.N,Net-(ESP1-Pad2)*%
X143350000Y-80250000D03*
%TO.P,ESP1,1*%
%TO.N,Net-(ESP1-Pad1)*%
X143350000Y-78250000D03*
%TD*%
%TO.P,C2,2*%
%TO.N,GND*%
%TA.AperFunction,SMDPad,CuDef*%
G36*
G01*
X146262500Y-93325000D02*
X146737500Y-93325000D01*
G75*
G02*
X146975000Y-93562500I0J-237500D01*
G01*
X146975000Y-94162500D01*
G75*
G02*
X146737500Y-94400000I-237500J0D01*
G01*
X146262500Y-94400000D01*
G75*
G02*
X146025000Y-94162500I0J237500D01*
G01*
X146025000Y-93562500D01*
G75*
G02*
X146262500Y-93325000I237500J0D01*
G01*
G37*
%TD.AperFunction*%
%TO.P,C2,1*%
%TO.N,Net-(C1-Pad1)*%
%TA.AperFunction,SMDPad,CuDef*%
G36*
G01*
X146262500Y-91600000D02*
X146737500Y-91600000D01*
G75*
G02*
X146975000Y-91837500I0J-237500D01*
G01*
X146975000Y-92437500D01*
G75*
G02*
X146737500Y-92675000I-237500J0D01*
G01*
X146262500Y-92675000D01*
G75*
G02*
X146025000Y-92437500I0J237500D01*
G01*
X146025000Y-91837500D01*
G75*
G02*
X146262500Y-91600000I237500J0D01*
G01*
G37*
%TD.AperFunction*%
%TD*%
%TO.P,C1,2*%
%TO.N,GND*%
%TA.AperFunction,SMDPad,CuDef*%
G36*
G01*
X151406000Y-88180000D02*
X151406000Y-87080000D01*
G75*
G02*
X151656000Y-86830000I250000J0D01*
G01*
X154656000Y-86830000D01*
G75*
G02*
X154906000Y-87080000I0J-250000D01*
G01*
X154906000Y-88180000D01*
G75*
G02*
X154656000Y-88430000I-250000J0D01*
G01*
X151656000Y-88430000D01*
G75*
G02*
X151406000Y-88180000I0J250000D01*
G01*
G37*
%TD.AperFunction*%
%TO.P,C1,1*%
%TO.N,Net-(C1-Pad1)*%
%TA.AperFunction,SMDPad,CuDef*%
G36*
G01*
X145806000Y-88180000D02*
X145806000Y-87080000D01*
G75*
G02*
X146056000Y-86830000I250000J0D01*
G01*
X149056000Y-86830000D01*
G75*
G02*
X149306000Y-87080000I0J-250000D01*
G01*
X149306000Y-88180000D01*
G75*
G02*
X149056000Y-88430000I-250000J0D01*
G01*
X146056000Y-88430000D01*
G75*
G02*
X145806000Y-88180000I0J250000D01*
G01*
G37*
%TD.AperFunction*%
%TD*%
D15*
%TO.N,Net-(C1-Pad1)*%
X147955000Y-76454000D03*
X150686000Y-83502000D03*
X121158000Y-84582000D03*
%TO.N,Net-(ESP1-Pad19)*%
X126238000Y-83058000D03*
%TO.N,Net-(ESP1-Pad14)*%
X130302000Y-97028000D03*
%TO.N,Net-(ESP1-Pad13)*%
X132461000Y-96139000D03*
%TO.N,Net-(ESP1-Pad12)*%
X134366000Y-95504000D03*
%TO.N,Net-(ESP1-Pad11)*%
X138430000Y-97028000D03*
%TO.N,Net-(ESP1-Pad10)*%
X140462000Y-96266000D03*
%TO.N,Net-(ESP1-Pad9)*%
X142494000Y-95504000D03*
%TO.N,Net-(ESP1-Pad7)*%
X146050000Y-90932000D03*
%TO.N,Net-(ESP1-Pad6)*%
X145288000Y-89662000D03*
%TO.N,Net-(ESP1-Pad5)*%
X145796000Y-85852000D03*
%TO.N,Net-(ESP1-Pad4)*%
X145796000Y-84582000D03*
%TO.N,Net-(ESP1-Pad2)*%
X147574000Y-73914000D03*
%TO.N,Net-(ESP1-Pad1)*%
X149098000Y-72898000D03*
%TO.N,Net-(J2-Pad1)*%
X121412000Y-81280000D03*
%TD*%
D16*
%TO.N,GND*%
X146558000Y-67818000D02*
X146558000Y-70257500D01*
X146971001Y-67404999D02*
X146558000Y-67818000D01*
X151626000Y-79527000D02*
X151626000Y-80252000D01*
X151626000Y-80252000D02*
X152146000Y-80772000D01*
X152146000Y-80772000D02*
X153416000Y-80772000D01*
X153416000Y-87370000D02*
X153156000Y-87630000D01*
X153416000Y-80772000D02*
X153416000Y-87370000D01*
X155194000Y-78994000D02*
X153416000Y-80772000D01*
X155194000Y-73152000D02*
X155194000Y-78994000D01*
X157226000Y-71120000D02*
X155194000Y-73152000D01*
X146971001Y-97695001D02*
X146500000Y-97224000D01*
X146500000Y-97224000D02*
X146500000Y-93862500D01*
X157226000Y-71120000D02*
X158750000Y-71120000D01*
X126750000Y-92250000D02*
X128150000Y-92250000D01*
X125250000Y-90750000D02*
X126750000Y-92250000D01*
X128150000Y-96908000D02*
X128150000Y-92250000D01*
X128995001Y-97753001D02*
X128150000Y-96908000D01*
X128136000Y-96908000D02*
X128150000Y-96908000D01*
X127254000Y-97790000D02*
X128136000Y-96908000D01*
X117348000Y-97790000D02*
X127254000Y-97790000D01*
X149954999Y-67404999D02*
X147479001Y-67404999D01*
X147479001Y-67404999D02*
X146971001Y-67404999D01*
X127290999Y-97753001D02*
X127254000Y-97790000D01*
X129249001Y-97753001D02*
X127290999Y-97753001D01*
X128995001Y-97753001D02*
X129249001Y-97753001D01*
X116586000Y-71120000D02*
X117602000Y-71120000D01*
X116332000Y-70866000D02*
X116586000Y-71120000D01*
X116332000Y-67564000D02*
X116332000Y-70866000D01*
X116491001Y-67404999D02*
X116332000Y-67564000D01*
X147479001Y-67404999D02*
X116491001Y-67404999D01*
X116586000Y-71120000D02*
X116332000Y-71374000D01*
X116332000Y-71374000D02*
X116332000Y-97536000D01*
X116586000Y-97790000D02*
X117602000Y-97790000D01*
X116332000Y-97536000D02*
X116586000Y-97790000D01*
X117602000Y-97790000D02*
X117348000Y-97790000D01*
X117957000Y-97790000D02*
X117602000Y-97790000D01*
X157226000Y-71120000D02*
X158242000Y-71120000D01*
X158401001Y-67404999D02*
X149954999Y-67404999D01*
X158590999Y-67404999D02*
X158401001Y-67404999D01*
X159417001Y-97630999D02*
X159294999Y-97753001D01*
X159294999Y-97753001D02*
X129249001Y-97753001D01*
X159352001Y-67404999D02*
X159417001Y-67469999D01*
X158401001Y-67404999D02*
X159352001Y-67404999D01*
X158750000Y-71120000D02*
X159417001Y-70452999D01*
X159417001Y-67469999D02*
X159417001Y-70452999D01*
X158242000Y-71120000D02*
X158750000Y-71120000D01*
X158750000Y-71120000D02*
X159417001Y-71787001D01*
X159417001Y-71787001D02*
X159417001Y-97630999D01*
X159417001Y-70452999D02*
X159417001Y-71787001D01*
%TO.N,Net-(C1-Pad1)*%
X150686000Y-82017000D02*
X150686000Y-83502000D01*
X150114000Y-87630000D02*
X147556000Y-87630000D01*
X150686000Y-87058000D02*
X150114000Y-87630000D01*
X146500000Y-77500000D02*
X146528000Y-77500000D01*
X146528000Y-77500000D02*
X147036000Y-77500000D01*
X147828000Y-87358000D02*
X147556000Y-87630000D01*
X147556000Y-83024000D02*
X146304000Y-81772000D01*
X147556000Y-87630000D02*
X147556000Y-83024000D01*
X150686000Y-83502000D02*
X150686000Y-87058000D01*
X147556000Y-91081500D02*
X146500000Y-92137500D01*
X147556000Y-87630000D02*
X147556000Y-91081500D01*
X148826000Y-88900000D02*
X147556000Y-87630000D01*
X157226000Y-88900000D02*
X148826000Y-88900000D01*
X146387500Y-92250000D02*
X146500000Y-92137500D01*
X143350000Y-92250000D02*
X146387500Y-92250000D01*
X123000000Y-84750000D02*
X125250000Y-84750000D01*
X123000000Y-84750000D02*
X121326000Y-84750000D01*
X121326000Y-84750000D02*
X121158000Y-84582000D01*
X121158000Y-84582000D02*
X121158000Y-84582000D01*
X157226000Y-88900000D02*
X158242000Y-88900000D01*
X147955000Y-77089000D02*
X147955000Y-76454000D01*
X147544000Y-77500000D02*
X147955000Y-77089000D01*
X146500000Y-77500000D02*
X147544000Y-77500000D01*
%TO.N,Net-(ESP1-Pad22)*%
X128150000Y-78250000D02*
X121176000Y-78250000D01*
X121176000Y-78250000D02*
X120396000Y-77470000D01*
X120396000Y-77470000D02*
X120396000Y-74168000D01*
X119888000Y-73660000D02*
X118500000Y-73660000D01*
X120396000Y-74168000D02*
X119888000Y-73660000D01*
X118500000Y-73660000D02*
X117602000Y-73660000D01*
%TO.N,Net-(ESP1-Pad21)*%
X128150000Y-80250000D02*
X126732000Y-80250000D01*
X126732000Y-80250000D02*
X125730000Y-79248000D01*
X120396000Y-79248000D02*
X119888000Y-78740000D01*
X125730000Y-79248000D02*
X120396000Y-79248000D01*
X119888000Y-77588000D02*
X118500000Y-76200000D01*
X119888000Y-78740000D02*
X119888000Y-77588000D01*
X118500000Y-76200000D02*
X117602000Y-76200000D01*
%TO.N,Net-(ESP1-Pad20)*%
X128150000Y-82250000D02*
X126954000Y-82250000D01*
X126954000Y-82250000D02*
X126238000Y-81534000D01*
X126238000Y-81534000D02*
X126238000Y-80518000D01*
X126238000Y-80518000D02*
X125730000Y-80010000D01*
X119770000Y-80010000D02*
X118500000Y-78740000D01*
X125730000Y-80010000D02*
X119770000Y-80010000D01*
X118500000Y-78740000D02*
X117602000Y-78740000D01*
%TO.N,Net-(ESP1-Pad19)*%
X128150000Y-84250000D02*
X127430000Y-84250000D01*
X127430000Y-84250000D02*
X126238000Y-83058000D01*
X126238000Y-83058000D02*
X126238000Y-83058000D01*
%TO.N,Net-(ESP1-Pad18)*%
X123000000Y-86750000D02*
X120786000Y-86750000D01*
X120786000Y-86750000D02*
X120142000Y-86106000D01*
X120142000Y-85462000D02*
X118500000Y-83820000D01*
X120142000Y-86106000D02*
X120142000Y-85462000D01*
X118500000Y-83820000D02*
X119634000Y-83820000D01*
X119634000Y-83820000D02*
X120396000Y-83058000D01*
X125250000Y-82776000D02*
X125250000Y-81500000D01*
X124968000Y-83058000D02*
X125250000Y-82776000D01*
X128150000Y-86250000D02*
X127144000Y-86250000D01*
X124206000Y-83058000D02*
X124968000Y-83058000D01*
X120396000Y-83058000D02*
X124206000Y-83058000D01*
X124460000Y-83058000D02*
X125171190Y-83058000D01*
X125171190Y-83058000D02*
X126275010Y-84161820D01*
X124460000Y-83058000D02*
X124206000Y-83058000D01*
X126650000Y-86250000D02*
X128150000Y-86250000D01*
X126275010Y-85875010D02*
X126650000Y-86250000D01*
X126275010Y-84365010D02*
X126275010Y-85875010D01*
X126275010Y-84161820D02*
X126275010Y-84365010D01*
X126275010Y-84365010D02*
X126275010Y-84544990D01*
X118500000Y-83820000D02*
X117602000Y-83820000D01*
%TO.N,Net-(ESP1-Pad17)*%
X126750000Y-88250000D02*
X128150000Y-88250000D01*
X125250000Y-86750000D02*
X126750000Y-88250000D01*
X118500000Y-86360000D02*
X120532000Y-88392000D01*
X123608000Y-88392000D02*
X125250000Y-86750000D01*
X120532000Y-88392000D02*
X123608000Y-88392000D01*
X118500000Y-86360000D02*
X117602000Y-86360000D01*
%TO.N,Net-(ESP1-Pad16)*%
X125100000Y-88900000D02*
X125250000Y-88750000D01*
X118500000Y-88900000D02*
X125100000Y-88900000D01*
X126750000Y-90250000D02*
X125250000Y-88750000D01*
X128150000Y-90250000D02*
X126750000Y-90250000D01*
X118500000Y-88900000D02*
X117602000Y-88900000D01*
%TO.N,Net-(ESP1-Pad14)*%
X130750000Y-93750000D02*
X130750000Y-96580000D01*
X130750000Y-96580000D02*
X130302000Y-97028000D01*
X130302000Y-97028000D02*
X130302000Y-97028000D01*
%TO.N,Net-(ESP1-Pad13)*%
X132750000Y-93750000D02*
X132750000Y-95850000D01*
X132750000Y-95850000D02*
X132461000Y-96139000D01*
X132461000Y-96139000D02*
X132334000Y-96266000D01*
%TO.N,Net-(ESP1-Pad12)*%
X134750000Y-93750000D02*
X134750000Y-95120000D01*
X134750000Y-95120000D02*
X134366000Y-95504000D01*
X134366000Y-95504000D02*
X134366000Y-95504000D01*
%TO.N,Net-(ESP1-Pad11)*%
X136750000Y-93750000D02*
X136750000Y-96364000D01*
X136750000Y-96364000D02*
X137414000Y-97028000D01*
X137414000Y-97028000D02*
X138430000Y-97028000D01*
X138430000Y-97028000D02*
X138430000Y-97028000D01*
%TO.N,Net-(ESP1-Pad10)*%
X138750000Y-93750000D02*
X138750000Y-95570000D01*
X138750000Y-95570000D02*
X139446000Y-96266000D01*
X139446000Y-96266000D02*
X140462000Y-96266000D01*
X140462000Y-96266000D02*
X140462000Y-96266000D01*
%TO.N,Net-(ESP1-Pad9)*%
X140750000Y-93750000D02*
X140750000Y-94776000D01*
X140750000Y-94776000D02*
X141478000Y-95504000D01*
X141478000Y-95504000D02*
X142494000Y-95504000D01*
X142494000Y-95504000D02*
X142494000Y-95504000D01*
%TO.N,Net-(ESP1-Pad7)*%
X143350000Y-90250000D02*
X144606000Y-90250000D01*
X144606000Y-90250000D02*
X145288000Y-90932000D01*
X145288000Y-90932000D02*
X146050000Y-90932000D01*
X146050000Y-90932000D02*
X146050000Y-90932000D01*
%TO.N,Net-(ESP1-Pad6)*%
X143350000Y-88250000D02*
X144638000Y-88250000D01*
X144638000Y-88250000D02*
X145288000Y-88900000D01*
X145288000Y-88900000D02*
X145288000Y-89662000D01*
X145288000Y-89662000D02*
X145288000Y-89662000D01*
%TO.N,Net-(ESP1-Pad5)*%
X143350000Y-86250000D02*
X145398000Y-86250000D01*
X145398000Y-86250000D02*
X145796000Y-85852000D01*
X145796000Y-85852000D02*
X145796000Y-85852000D01*
%TO.N,Net-(ESP1-Pad4)*%
X143350000Y-84250000D02*
X145464000Y-84250000D01*
X145464000Y-84250000D02*
X145796000Y-84582000D01*
X145796000Y-84582000D02*
X145796000Y-84582000D01*
%TO.N,Net-(ESP1-Pad3)*%
X143605001Y-82250000D02*
X143350000Y-82250000D01*
X146034000Y-79821001D02*
X143605001Y-82250000D01*
X146034000Y-79772000D02*
X146034000Y-79821001D01*
X146304000Y-79772000D02*
X146034000Y-79772000D01*
%TO.N,Net-(ESP1-Pad2)*%
X143350000Y-80250000D02*
X144540000Y-80250000D01*
X144540000Y-79846810D02*
X145288000Y-79098810D01*
X144540000Y-80250000D02*
X144540000Y-79846810D01*
X145288000Y-79098810D02*
X145288000Y-74676000D01*
X145288000Y-74676000D02*
X146050000Y-73914000D01*
X146050000Y-73914000D02*
X147574000Y-73914000D01*
X147574000Y-73914000D02*
X147574000Y-73914000D01*
%TO.N,Net-(ESP1-Pad1)*%
X143350000Y-78250000D02*
X144508000Y-78250000D01*
X145542000Y-73660000D02*
X144526000Y-74676000D01*
X144526000Y-77074000D02*
X143350000Y-78250000D01*
X144526000Y-74676000D02*
X144526000Y-77074000D01*
X148082000Y-72644000D02*
X147574000Y-73152000D01*
X146050000Y-73152000D02*
X145542000Y-73660000D01*
X147574000Y-73152000D02*
X146050000Y-73152000D01*
X147061002Y-75500000D02*
X148481999Y-74079003D01*
X146500000Y-75500000D02*
X147061002Y-75500000D01*
X148844000Y-72644000D02*
X149098000Y-72898000D01*
X148082000Y-72644000D02*
X148844000Y-72644000D01*
X149098000Y-72898000D02*
X148481999Y-73514001D01*
X148481999Y-74079003D02*
X148481999Y-73514001D01*
%TO.N,VCC*%
X157226000Y-68580000D02*
X155702000Y-68580000D01*
X155702000Y-68580000D02*
X154432000Y-69850000D01*
X154432000Y-75023500D02*
X153255500Y-76200000D01*
X154432000Y-69850000D02*
X154432000Y-75023500D01*
X157226000Y-68580000D02*
X158242000Y-68580000D01*
%TO.N,Net-(J2-Pad1)*%
X123250000Y-81500000D02*
X121632000Y-81500000D01*
X121632000Y-81500000D02*
X121412000Y-81280000D01*
X121412000Y-81280000D02*
X121412000Y-81280000D01*
%TO.N,Net-(R1-Pad2)*%
X152566000Y-79527000D02*
X152566000Y-78906000D01*
X152251999Y-78591999D02*
X148738001Y-78591999D01*
X152566000Y-78906000D02*
X152251999Y-78591999D01*
X148324000Y-79006000D02*
X148324000Y-79772000D01*
X148738001Y-78591999D02*
X148324000Y-79006000D01*
%TO.N,Net-(C3-Pad1)*%
X148980500Y-76200000D02*
X148980500Y-76825500D01*
X148320000Y-81772000D02*
X148324000Y-81772000D01*
X148324000Y-81772000D02*
X149114000Y-81772000D01*
X149114000Y-81772000D02*
X149606000Y-81280000D01*
X149606000Y-81280000D02*
X149606000Y-80010000D01*
X150089000Y-79527000D02*
X150686000Y-79527000D01*
X149606000Y-80010000D02*
X150089000Y-79527000D01*
X146558000Y-71982500D02*
X149452500Y-71982500D01*
X149452500Y-71982500D02*
X150368000Y-72898000D01*
X150368000Y-74812500D02*
X148980500Y-76200000D01*
X150368000Y-72898000D02*
X150368000Y-74812500D01*
X149246500Y-76200000D02*
X149246500Y-77321500D01*
X148980500Y-76825500D02*
X147955000Y-77851000D01*
X149246500Y-76559500D02*
X149246500Y-76200000D01*
X148463000Y-81772000D02*
X148320000Y-81772000D01*
X147437990Y-78368010D02*
X147574000Y-78232000D01*
X147437990Y-80889990D02*
X147437990Y-78368010D01*
X148320000Y-81772000D02*
X147437990Y-80889990D01*
X147574000Y-78232000D02*
X149246500Y-76559500D01*
X147447000Y-78359000D02*
X147574000Y-78232000D01*
%TD*%
M02*
