%TF.GenerationSoftware,KiCad,Pcbnew,5.1.8*%
%TF.CreationDate,2020-12-08T00:01:30+01:00*%
%TF.ProjectId,ESP8266_base_vreg,45535038-3236-4365-9f62-6173655f7672,rev?*%
%TF.SameCoordinates,Original*%
%TF.FileFunction,Legend,Bot*%
%TF.FilePolarity,Positive*%
%FSLAX46Y46*%
G04 Gerber Fmt 4.6, Leading zero omitted, Abs format (unit mm)*
G04 Created by KiCad (PCBNEW 5.1.8) date 2020-12-08 00:01:30*
%MOMM*%
%LPD*%
G01*
G04 APERTURE LIST*
%ADD10C,0.150000*%
%ADD11C,0.120000*%
%ADD12C,0.200000*%
%ADD13C,0.127000*%
%ADD14C,0.015000*%
G04 APERTURE END LIST*
D10*
X126028571Y-73960714D02*
X125790476Y-74627380D01*
X125552380Y-73960714D01*
X124647619Y-74627380D02*
X125219047Y-74627380D01*
X124933333Y-74627380D02*
X124933333Y-73627380D01*
X125028571Y-73770238D01*
X125123809Y-73865476D01*
X125219047Y-73913095D01*
X124219047Y-74532142D02*
X124171428Y-74579761D01*
X124219047Y-74627380D01*
X124266666Y-74579761D01*
X124219047Y-74532142D01*
X124219047Y-74627380D01*
X123552380Y-73627380D02*
X123457142Y-73627380D01*
X123361904Y-73675000D01*
X123314285Y-73722619D01*
X123266666Y-73817857D01*
X123219047Y-74008333D01*
X123219047Y-74246428D01*
X123266666Y-74436904D01*
X123314285Y-74532142D01*
X123361904Y-74579761D01*
X123457142Y-74627380D01*
X123552380Y-74627380D01*
X123647619Y-74579761D01*
X123695238Y-74532142D01*
X123742857Y-74436904D01*
X123790476Y-74246428D01*
X123790476Y-74008333D01*
X123742857Y-73817857D01*
X123695238Y-73722619D01*
X123647619Y-73675000D01*
X123552380Y-73627380D01*
X127123809Y-76277380D02*
X127123809Y-75277380D01*
X127123809Y-75658333D02*
X127028571Y-75610714D01*
X126838095Y-75610714D01*
X126742857Y-75658333D01*
X126695238Y-75705952D01*
X126647619Y-75801190D01*
X126647619Y-76086904D01*
X126695238Y-76182142D01*
X126742857Y-76229761D01*
X126838095Y-76277380D01*
X127028571Y-76277380D01*
X127123809Y-76229761D01*
X126314285Y-75610714D02*
X126076190Y-76277380D01*
X125838095Y-75610714D02*
X126076190Y-76277380D01*
X126171428Y-76515476D01*
X126219047Y-76563095D01*
X126314285Y-76610714D01*
X124742857Y-76229761D02*
X124600000Y-76277380D01*
X124361904Y-76277380D01*
X124266666Y-76229761D01*
X124219047Y-76182142D01*
X124171428Y-76086904D01*
X124171428Y-75991666D01*
X124219047Y-75896428D01*
X124266666Y-75848809D01*
X124361904Y-75801190D01*
X124552380Y-75753571D01*
X124647619Y-75705952D01*
X124695238Y-75658333D01*
X124742857Y-75563095D01*
X124742857Y-75467857D01*
X124695238Y-75372619D01*
X124647619Y-75325000D01*
X124552380Y-75277380D01*
X124314285Y-75277380D01*
X124171428Y-75325000D01*
X123742857Y-76277380D02*
X123742857Y-75277380D01*
X123361904Y-75277380D01*
X123266666Y-75325000D01*
X123219047Y-75372619D01*
X123171428Y-75467857D01*
X123171428Y-75610714D01*
X123219047Y-75705952D01*
X123266666Y-75753571D01*
X123361904Y-75801190D01*
X123742857Y-75801190D01*
X122742857Y-76277380D02*
X122742857Y-75277380D01*
X122409523Y-75991666D01*
X122076190Y-75277380D01*
X122076190Y-76277380D01*
X146328571Y-68028571D02*
X145995238Y-68028571D01*
X145852380Y-68552380D02*
X146328571Y-68552380D01*
X146328571Y-67552380D01*
X145852380Y-67552380D01*
X145471428Y-68504761D02*
X145328571Y-68552380D01*
X145090476Y-68552380D01*
X144995238Y-68504761D01*
X144947619Y-68457142D01*
X144900000Y-68361904D01*
X144900000Y-68266666D01*
X144947619Y-68171428D01*
X144995238Y-68123809D01*
X145090476Y-68076190D01*
X145280952Y-68028571D01*
X145376190Y-67980952D01*
X145423809Y-67933333D01*
X145471428Y-67838095D01*
X145471428Y-67742857D01*
X145423809Y-67647619D01*
X145376190Y-67600000D01*
X145280952Y-67552380D01*
X145042857Y-67552380D01*
X144900000Y-67600000D01*
X144471428Y-68552380D02*
X144471428Y-67552380D01*
X144090476Y-67552380D01*
X143995238Y-67600000D01*
X143947619Y-67647619D01*
X143900000Y-67742857D01*
X143900000Y-67885714D01*
X143947619Y-67980952D01*
X143995238Y-68028571D01*
X144090476Y-68076190D01*
X144471428Y-68076190D01*
X142947619Y-68552380D02*
X143519047Y-68552380D01*
X143233333Y-68552380D02*
X143233333Y-67552380D01*
X143328571Y-67695238D01*
X143423809Y-67790476D01*
X143519047Y-67838095D01*
X142566666Y-67647619D02*
X142519047Y-67600000D01*
X142423809Y-67552380D01*
X142185714Y-67552380D01*
X142090476Y-67600000D01*
X142042857Y-67647619D01*
X141995238Y-67742857D01*
X141995238Y-67838095D01*
X142042857Y-67980952D01*
X142614285Y-68552380D01*
X141995238Y-68552380D01*
X141233333Y-68028571D02*
X141566666Y-68028571D01*
X141566666Y-68552380D02*
X141566666Y-67552380D01*
X141090476Y-67552380D01*
X139519047Y-67885714D02*
X139519047Y-68552380D01*
X139947619Y-67885714D02*
X139947619Y-68409523D01*
X139900000Y-68504761D01*
X139804761Y-68552380D01*
X139661904Y-68552380D01*
X139566666Y-68504761D01*
X139519047Y-68457142D01*
X139042857Y-67885714D02*
X139042857Y-68552380D01*
X139042857Y-67980952D02*
X138995238Y-67933333D01*
X138900000Y-67885714D01*
X138757142Y-67885714D01*
X138661904Y-67933333D01*
X138614285Y-68028571D01*
X138614285Y-68552380D01*
X138138095Y-68552380D02*
X138138095Y-67885714D01*
X138138095Y-67552380D02*
X138185714Y-67600000D01*
X138138095Y-67647619D01*
X138090476Y-67600000D01*
X138138095Y-67552380D01*
X138138095Y-67647619D01*
X137757142Y-67885714D02*
X137519047Y-68552380D01*
X137280952Y-67885714D01*
X136519047Y-68504761D02*
X136614285Y-68552380D01*
X136804761Y-68552380D01*
X136900000Y-68504761D01*
X136947619Y-68409523D01*
X136947619Y-68028571D01*
X136900000Y-67933333D01*
X136804761Y-67885714D01*
X136614285Y-67885714D01*
X136519047Y-67933333D01*
X136471428Y-68028571D01*
X136471428Y-68123809D01*
X136947619Y-68219047D01*
X136042857Y-68552380D02*
X136042857Y-67885714D01*
X136042857Y-68076190D02*
X135995238Y-67980952D01*
X135947619Y-67933333D01*
X135852380Y-67885714D01*
X135757142Y-67885714D01*
X135471428Y-68504761D02*
X135376190Y-68552380D01*
X135185714Y-68552380D01*
X135090476Y-68504761D01*
X135042857Y-68409523D01*
X135042857Y-68361904D01*
X135090476Y-68266666D01*
X135185714Y-68219047D01*
X135328571Y-68219047D01*
X135423809Y-68171428D01*
X135471428Y-68076190D01*
X135471428Y-68028571D01*
X135423809Y-67933333D01*
X135328571Y-67885714D01*
X135185714Y-67885714D01*
X135090476Y-67933333D01*
X134185714Y-68552380D02*
X134185714Y-68028571D01*
X134233333Y-67933333D01*
X134328571Y-67885714D01*
X134519047Y-67885714D01*
X134614285Y-67933333D01*
X134185714Y-68504761D02*
X134280952Y-68552380D01*
X134519047Y-68552380D01*
X134614285Y-68504761D01*
X134661904Y-68409523D01*
X134661904Y-68314285D01*
X134614285Y-68219047D01*
X134519047Y-68171428D01*
X134280952Y-68171428D01*
X134185714Y-68123809D01*
X133566666Y-68552380D02*
X133661904Y-68504761D01*
X133709523Y-68409523D01*
X133709523Y-67552380D01*
X132423809Y-68552380D02*
X132423809Y-67885714D01*
X132423809Y-67980952D02*
X132376190Y-67933333D01*
X132280952Y-67885714D01*
X132138095Y-67885714D01*
X132042857Y-67933333D01*
X131995238Y-68028571D01*
X131995238Y-68552380D01*
X131995238Y-68028571D02*
X131947619Y-67933333D01*
X131852380Y-67885714D01*
X131709523Y-67885714D01*
X131614285Y-67933333D01*
X131566666Y-68028571D01*
X131566666Y-68552380D01*
X130947619Y-68552380D02*
X131042857Y-68504761D01*
X131090476Y-68457142D01*
X131138095Y-68361904D01*
X131138095Y-68076190D01*
X131090476Y-67980952D01*
X131042857Y-67933333D01*
X130947619Y-67885714D01*
X130804761Y-67885714D01*
X130709523Y-67933333D01*
X130661904Y-67980952D01*
X130614285Y-68076190D01*
X130614285Y-68361904D01*
X130661904Y-68457142D01*
X130709523Y-68504761D01*
X130804761Y-68552380D01*
X130947619Y-68552380D01*
X129757142Y-68552380D02*
X129757142Y-67552380D01*
X129757142Y-68504761D02*
X129852380Y-68552380D01*
X130042857Y-68552380D01*
X130138095Y-68504761D01*
X130185714Y-68457142D01*
X130233333Y-68361904D01*
X130233333Y-68076190D01*
X130185714Y-67980952D01*
X130138095Y-67933333D01*
X130042857Y-67885714D01*
X129852380Y-67885714D01*
X129757142Y-67933333D01*
X128852380Y-67885714D02*
X128852380Y-68552380D01*
X129280952Y-67885714D02*
X129280952Y-68409523D01*
X129233333Y-68504761D01*
X129138095Y-68552380D01*
X128995238Y-68552380D01*
X128900000Y-68504761D01*
X128852380Y-68457142D01*
X128233333Y-68552380D02*
X128328571Y-68504761D01*
X128376190Y-68409523D01*
X128376190Y-67552380D01*
X127471428Y-68504761D02*
X127566666Y-68552380D01*
X127757142Y-68552380D01*
X127852380Y-68504761D01*
X127900000Y-68409523D01*
X127900000Y-68028571D01*
X127852380Y-67933333D01*
X127757142Y-67885714D01*
X127566666Y-67885714D01*
X127471428Y-67933333D01*
X127423809Y-68028571D01*
X127423809Y-68123809D01*
X127900000Y-68219047D01*
D11*
%TO.C,C3*%
X147068000Y-71266267D02*
X147068000Y-70973733D01*
X146048000Y-71266267D02*
X146048000Y-70973733D01*
D12*
%TO.C,U1*%
X150726000Y-78372000D02*
G75*
G03*
X150726000Y-78372000I-100000J0D01*
G01*
D13*
X153205000Y-79872000D02*
X153205000Y-81672000D01*
X150047000Y-79872000D02*
X150047000Y-81672000D01*
D11*
%TO.C,R7*%
X145765000Y-76727064D02*
X145765000Y-76272936D01*
X147235000Y-76727064D02*
X147235000Y-76272936D01*
%TO.C,R6*%
X124477064Y-82235000D02*
X124022936Y-82235000D01*
X124477064Y-80765000D02*
X124022936Y-80765000D01*
%TO.C,R5*%
X124515000Y-89977064D02*
X124515000Y-89522936D01*
X125985000Y-89977064D02*
X125985000Y-89522936D01*
%TO.C,R4*%
X123735000Y-85522936D02*
X123735000Y-85977064D01*
X122265000Y-85522936D02*
X122265000Y-85977064D01*
%TO.C,R3*%
X124515000Y-85977064D02*
X124515000Y-85522936D01*
X125985000Y-85977064D02*
X125985000Y-85522936D01*
%TO.C,R2*%
X145569000Y-80999064D02*
X145569000Y-80544936D01*
X147039000Y-80999064D02*
X147039000Y-80544936D01*
%TO.C,R1*%
X147728000Y-80999064D02*
X147728000Y-80544936D01*
X149198000Y-80999064D02*
X149198000Y-80544936D01*
%TO.C,F1*%
X152770252Y-77910000D02*
X149997748Y-77910000D01*
X152770252Y-74490000D02*
X149997748Y-74490000D01*
%TO.C,ESP1*%
X143870000Y-77250000D02*
X144480000Y-77250000D01*
X143870000Y-77250000D02*
X143870000Y-69630000D01*
X143870000Y-93870000D02*
X143870000Y-93250000D01*
X141750000Y-93870000D02*
X143870000Y-93870000D01*
X127630000Y-93870000D02*
X129750000Y-93870000D01*
X127630000Y-93250000D02*
X127630000Y-93870000D01*
X127630000Y-69630000D02*
X127630000Y-77250000D01*
X143870000Y-69630000D02*
X127630000Y-69630000D01*
%TO.C,C2*%
X147010000Y-92853733D02*
X147010000Y-93146267D01*
X145990000Y-92853733D02*
X145990000Y-93146267D01*
%TO.C,C1*%
X146312250Y-89871250D02*
X146312250Y-89083750D01*
X145918500Y-89477500D02*
X146706000Y-89477500D01*
X146946000Y-85284437D02*
X148010437Y-84220000D01*
X146946000Y-89975563D02*
X148010437Y-91040000D01*
X146946000Y-89975563D02*
X146946000Y-88690000D01*
X146946000Y-85284437D02*
X146946000Y-86570000D01*
X148010437Y-84220000D02*
X153766000Y-84220000D01*
X148010437Y-91040000D02*
X153766000Y-91040000D01*
X153766000Y-91040000D02*
X153766000Y-88690000D01*
X153766000Y-84220000D02*
X153766000Y-86570000D01*
%TO.C,C3*%
D10*
X148629642Y-70889833D02*
X148677261Y-70842214D01*
X148724880Y-70699357D01*
X148724880Y-70604119D01*
X148677261Y-70461261D01*
X148582023Y-70366023D01*
X148486785Y-70318404D01*
X148296309Y-70270785D01*
X148153452Y-70270785D01*
X147962976Y-70318404D01*
X147867738Y-70366023D01*
X147772500Y-70461261D01*
X147724880Y-70604119D01*
X147724880Y-70699357D01*
X147772500Y-70842214D01*
X147820119Y-70889833D01*
X147724880Y-71223166D02*
X147724880Y-71842214D01*
X148105833Y-71508880D01*
X148105833Y-71651738D01*
X148153452Y-71746976D01*
X148201071Y-71794595D01*
X148296309Y-71842214D01*
X148534404Y-71842214D01*
X148629642Y-71794595D01*
X148677261Y-71746976D01*
X148724880Y-71651738D01*
X148724880Y-71366023D01*
X148677261Y-71270785D01*
X148629642Y-71223166D01*
%TO.C,U1*%
D14*
X148443380Y-81185095D02*
X149252904Y-81185095D01*
X149348142Y-81232714D01*
X149395761Y-81280333D01*
X149443380Y-81375571D01*
X149443380Y-81566047D01*
X149395761Y-81661285D01*
X149348142Y-81708904D01*
X149252904Y-81756523D01*
X148443380Y-81756523D01*
X149443380Y-82756523D02*
X149443380Y-82185095D01*
X149443380Y-82470809D02*
X148443380Y-82470809D01*
X148586238Y-82375571D01*
X148681476Y-82280333D01*
X148729095Y-82185095D01*
%TO.C,R7*%
D10*
X146470666Y-74239380D02*
X146804000Y-73763190D01*
X147042095Y-74239380D02*
X147042095Y-73239380D01*
X146661142Y-73239380D01*
X146565904Y-73287000D01*
X146518285Y-73334619D01*
X146470666Y-73429857D01*
X146470666Y-73572714D01*
X146518285Y-73667952D01*
X146565904Y-73715571D01*
X146661142Y-73763190D01*
X147042095Y-73763190D01*
X146137333Y-73239380D02*
X145470666Y-73239380D01*
X145899238Y-74239380D01*
%TO.C,R6*%
X124416666Y-80302380D02*
X124750000Y-79826190D01*
X124988095Y-80302380D02*
X124988095Y-79302380D01*
X124607142Y-79302380D01*
X124511904Y-79350000D01*
X124464285Y-79397619D01*
X124416666Y-79492857D01*
X124416666Y-79635714D01*
X124464285Y-79730952D01*
X124511904Y-79778571D01*
X124607142Y-79826190D01*
X124988095Y-79826190D01*
X123559523Y-79302380D02*
X123750000Y-79302380D01*
X123845238Y-79350000D01*
X123892857Y-79397619D01*
X123988095Y-79540476D01*
X124035714Y-79730952D01*
X124035714Y-80111904D01*
X123988095Y-80207142D01*
X123940476Y-80254761D01*
X123845238Y-80302380D01*
X123654761Y-80302380D01*
X123559523Y-80254761D01*
X123511904Y-80207142D01*
X123464285Y-80111904D01*
X123464285Y-79873809D01*
X123511904Y-79778571D01*
X123559523Y-79730952D01*
X123654761Y-79683333D01*
X123845238Y-79683333D01*
X123940476Y-79730952D01*
X123988095Y-79778571D01*
X124035714Y-79873809D01*
%TO.C,R5*%
X123952380Y-89333333D02*
X123476190Y-89000000D01*
X123952380Y-88761904D02*
X122952380Y-88761904D01*
X122952380Y-89142857D01*
X123000000Y-89238095D01*
X123047619Y-89285714D01*
X123142857Y-89333333D01*
X123285714Y-89333333D01*
X123380952Y-89285714D01*
X123428571Y-89238095D01*
X123476190Y-89142857D01*
X123476190Y-88761904D01*
X122952380Y-90238095D02*
X122952380Y-89761904D01*
X123428571Y-89714285D01*
X123380952Y-89761904D01*
X123333333Y-89857142D01*
X123333333Y-90095238D01*
X123380952Y-90190476D01*
X123428571Y-90238095D01*
X123523809Y-90285714D01*
X123761904Y-90285714D01*
X123857142Y-90238095D01*
X123904761Y-90190476D01*
X123952380Y-90095238D01*
X123952380Y-89857142D01*
X123904761Y-89761904D01*
X123857142Y-89714285D01*
%TO.C,R4*%
X122594666Y-83702380D02*
X122928000Y-83226190D01*
X123166095Y-83702380D02*
X123166095Y-82702380D01*
X122785142Y-82702380D01*
X122689904Y-82750000D01*
X122642285Y-82797619D01*
X122594666Y-82892857D01*
X122594666Y-83035714D01*
X122642285Y-83130952D01*
X122689904Y-83178571D01*
X122785142Y-83226190D01*
X123166095Y-83226190D01*
X121737523Y-83035714D02*
X121737523Y-83702380D01*
X121975619Y-82654761D02*
X122213714Y-83369047D01*
X121594666Y-83369047D01*
%TO.C,R3*%
X124626666Y-83702380D02*
X124960000Y-83226190D01*
X125198095Y-83702380D02*
X125198095Y-82702380D01*
X124817142Y-82702380D01*
X124721904Y-82750000D01*
X124674285Y-82797619D01*
X124626666Y-82892857D01*
X124626666Y-83035714D01*
X124674285Y-83130952D01*
X124721904Y-83178571D01*
X124817142Y-83226190D01*
X125198095Y-83226190D01*
X124293333Y-82702380D02*
X123674285Y-82702380D01*
X124007619Y-83083333D01*
X123864761Y-83083333D01*
X123769523Y-83130952D01*
X123721904Y-83178571D01*
X123674285Y-83273809D01*
X123674285Y-83511904D01*
X123721904Y-83607142D01*
X123769523Y-83654761D01*
X123864761Y-83702380D01*
X124150476Y-83702380D01*
X124245714Y-83654761D01*
X124293333Y-83607142D01*
%TO.C,R2*%
X146470666Y-83764380D02*
X146804000Y-83288190D01*
X147042095Y-83764380D02*
X147042095Y-82764380D01*
X146661142Y-82764380D01*
X146565904Y-82812000D01*
X146518285Y-82859619D01*
X146470666Y-82954857D01*
X146470666Y-83097714D01*
X146518285Y-83192952D01*
X146565904Y-83240571D01*
X146661142Y-83288190D01*
X147042095Y-83288190D01*
X146089714Y-82859619D02*
X146042095Y-82812000D01*
X145946857Y-82764380D01*
X145708761Y-82764380D01*
X145613523Y-82812000D01*
X145565904Y-82859619D01*
X145518285Y-82954857D01*
X145518285Y-83050095D01*
X145565904Y-83192952D01*
X146137333Y-83764380D01*
X145518285Y-83764380D01*
%TO.C,R1*%
X149055666Y-83702380D02*
X149389000Y-83226190D01*
X149627095Y-83702380D02*
X149627095Y-82702380D01*
X149246142Y-82702380D01*
X149150904Y-82750000D01*
X149103285Y-82797619D01*
X149055666Y-82892857D01*
X149055666Y-83035714D01*
X149103285Y-83130952D01*
X149150904Y-83178571D01*
X149246142Y-83226190D01*
X149627095Y-83226190D01*
X148103285Y-83702380D02*
X148674714Y-83702380D01*
X148389000Y-83702380D02*
X148389000Y-82702380D01*
X148484238Y-82845238D01*
X148579476Y-82940476D01*
X148674714Y-82988095D01*
%TO.C,F1*%
X155349333Y-76678571D02*
X155682666Y-76678571D01*
X155682666Y-77202380D02*
X155682666Y-76202380D01*
X155206476Y-76202380D01*
X154301714Y-77202380D02*
X154873142Y-77202380D01*
X154587428Y-77202380D02*
X154587428Y-76202380D01*
X154682666Y-76345238D01*
X154777904Y-76440476D01*
X154873142Y-76488095D01*
%TO.C,ESP1*%
X126366666Y-78228571D02*
X126033333Y-78228571D01*
X125890476Y-78752380D02*
X126366666Y-78752380D01*
X126366666Y-77752380D01*
X125890476Y-77752380D01*
X125509523Y-78704761D02*
X125366666Y-78752380D01*
X125128571Y-78752380D01*
X125033333Y-78704761D01*
X124985714Y-78657142D01*
X124938095Y-78561904D01*
X124938095Y-78466666D01*
X124985714Y-78371428D01*
X125033333Y-78323809D01*
X125128571Y-78276190D01*
X125319047Y-78228571D01*
X125414285Y-78180952D01*
X125461904Y-78133333D01*
X125509523Y-78038095D01*
X125509523Y-77942857D01*
X125461904Y-77847619D01*
X125414285Y-77800000D01*
X125319047Y-77752380D01*
X125080952Y-77752380D01*
X124938095Y-77800000D01*
X124509523Y-78752380D02*
X124509523Y-77752380D01*
X124128571Y-77752380D01*
X124033333Y-77800000D01*
X123985714Y-77847619D01*
X123938095Y-77942857D01*
X123938095Y-78085714D01*
X123985714Y-78180952D01*
X124033333Y-78228571D01*
X124128571Y-78276190D01*
X124509523Y-78276190D01*
X122985714Y-78752380D02*
X123557142Y-78752380D01*
X123271428Y-78752380D02*
X123271428Y-77752380D01*
X123366666Y-77895238D01*
X123461904Y-77990476D01*
X123557142Y-78038095D01*
%TO.C,C2*%
X148357142Y-93333333D02*
X148404761Y-93285714D01*
X148452380Y-93142857D01*
X148452380Y-93047619D01*
X148404761Y-92904761D01*
X148309523Y-92809523D01*
X148214285Y-92761904D01*
X148023809Y-92714285D01*
X147880952Y-92714285D01*
X147690476Y-92761904D01*
X147595238Y-92809523D01*
X147500000Y-92904761D01*
X147452380Y-93047619D01*
X147452380Y-93142857D01*
X147500000Y-93285714D01*
X147547619Y-93333333D01*
X147547619Y-93714285D02*
X147500000Y-93761904D01*
X147452380Y-93857142D01*
X147452380Y-94095238D01*
X147500000Y-94190476D01*
X147547619Y-94238095D01*
X147642857Y-94285714D01*
X147738095Y-94285714D01*
X147880952Y-94238095D01*
X148452380Y-93666666D01*
X148452380Y-94285714D01*
%TO.C,C1*%
X154916666Y-83857142D02*
X154964285Y-83904761D01*
X155107142Y-83952380D01*
X155202380Y-83952380D01*
X155345238Y-83904761D01*
X155440476Y-83809523D01*
X155488095Y-83714285D01*
X155535714Y-83523809D01*
X155535714Y-83380952D01*
X155488095Y-83190476D01*
X155440476Y-83095238D01*
X155345238Y-83000000D01*
X155202380Y-82952380D01*
X155107142Y-82952380D01*
X154964285Y-83000000D01*
X154916666Y-83047619D01*
X153964285Y-83952380D02*
X154535714Y-83952380D01*
X154250000Y-83952380D02*
X154250000Y-82952380D01*
X154345238Y-83095238D01*
X154440476Y-83190476D01*
X154535714Y-83238095D01*
%TD*%
M02*
