%TF.GenerationSoftware,KiCad,Pcbnew,5.1.8*%
%TF.CreationDate,2020-12-08T00:01:30+01:00*%
%TF.ProjectId,ESP8266_base_vreg,45535038-3236-4365-9f62-6173655f7672,rev?*%
%TF.SameCoordinates,Original*%
%TF.FileFunction,Copper,L1,Top*%
%TF.FilePolarity,Positive*%
%FSLAX46Y46*%
G04 Gerber Fmt 4.6, Leading zero omitted, Abs format (unit mm)*
G04 Created by KiCad (PCBNEW 5.1.8) date 2020-12-08 00:01:30*
%MOMM*%
%LPD*%
G01*
G04 APERTURE LIST*
%TA.AperFunction,ComponentPad*%
%ADD10O,1.700000X1.700000*%
%TD*%
%TA.AperFunction,ComponentPad*%
%ADD11R,1.700000X1.700000*%
%TD*%
%TA.AperFunction,ViaPad*%
%ADD12C,0.800000*%
%TD*%
%TA.AperFunction,Conductor*%
%ADD13C,0.250000*%
%TD*%
G04 APERTURE END LIST*
D10*
%TO.P,J2,12*%
%TO.N,Net-(ESP1-Pad14)*%
X117602000Y-96520000D03*
%TO.P,J2,11*%
%TO.N,Net-(ESP1-Pad13)*%
X117602000Y-93980000D03*
%TO.P,J2,10*%
%TO.N,Net-(ESP1-Pad12)*%
X117602000Y-91440000D03*
%TO.P,J2,9*%
%TO.N,Net-(ESP1-Pad16)*%
X117602000Y-88900000D03*
%TO.P,J2,8*%
%TO.N,Net-(ESP1-Pad17)*%
X117602000Y-86360000D03*
%TO.P,J2,7*%
%TO.N,Net-(ESP1-Pad18)*%
X117602000Y-83820000D03*
%TO.P,J2,6*%
%TO.N,Net-(ESP1-Pad19)*%
X117602000Y-81280000D03*
%TO.P,J2,5*%
%TO.N,Net-(ESP1-Pad20)*%
X117602000Y-78740000D03*
%TO.P,J2,4*%
%TO.N,Net-(ESP1-Pad21)*%
X117602000Y-76200000D03*
%TO.P,J2,3*%
%TO.N,Net-(ESP1-Pad22)*%
X117602000Y-73660000D03*
%TO.P,J2,2*%
%TO.N,GND*%
X117602000Y-71120000D03*
D11*
%TO.P,J2,1*%
%TO.N,Net-(J2-Pad1)*%
X117602000Y-68580000D03*
%TD*%
D10*
%TO.P,J1,12*%
%TO.N,Net-(ESP1-Pad11)*%
X158242000Y-96520000D03*
%TO.P,J1,11*%
%TO.N,Net-(ESP1-Pad10)*%
X158242000Y-93980000D03*
%TO.P,J1,10*%
%TO.N,Net-(ESP1-Pad9)*%
X158242000Y-91440000D03*
%TO.P,J1,9*%
%TO.N,Net-(C1-Pad1)*%
X158242000Y-88900000D03*
%TO.P,J1,8*%
%TO.N,Net-(ESP1-Pad7)*%
X158242000Y-86360000D03*
%TO.P,J1,7*%
%TO.N,Net-(ESP1-Pad6)*%
X158242000Y-83820000D03*
%TO.P,J1,6*%
%TO.N,Net-(ESP1-Pad5)*%
X158242000Y-81280000D03*
%TO.P,J1,5*%
%TO.N,Net-(ESP1-Pad4)*%
X158242000Y-78740000D03*
%TO.P,J1,4*%
%TO.N,Net-(ESP1-Pad2)*%
X158242000Y-76200000D03*
%TO.P,J1,3*%
%TO.N,Net-(ESP1-Pad1)*%
X158242000Y-73660000D03*
%TO.P,J1,2*%
%TO.N,GND*%
X158242000Y-71120000D03*
D11*
%TO.P,J1,1*%
%TO.N,VCC*%
X158242000Y-68580000D03*
%TD*%
D12*
%TO.N,Net-(C1-Pad1)*%
X147955000Y-76454000D03*
X150686000Y-83502000D03*
X121158000Y-84582000D03*
%TO.N,Net-(ESP1-Pad19)*%
X126238000Y-83058000D03*
%TO.N,Net-(ESP1-Pad14)*%
X130302000Y-97028000D03*
%TO.N,Net-(ESP1-Pad13)*%
X132461000Y-96139000D03*
%TO.N,Net-(ESP1-Pad12)*%
X134366000Y-95504000D03*
%TO.N,Net-(ESP1-Pad11)*%
X138430000Y-97028000D03*
%TO.N,Net-(ESP1-Pad10)*%
X140462000Y-96266000D03*
%TO.N,Net-(ESP1-Pad9)*%
X142494000Y-95504000D03*
%TO.N,Net-(ESP1-Pad7)*%
X146050000Y-90932000D03*
%TO.N,Net-(ESP1-Pad6)*%
X145288000Y-89662000D03*
%TO.N,Net-(ESP1-Pad5)*%
X145796000Y-85852000D03*
%TO.N,Net-(ESP1-Pad4)*%
X145796000Y-84582000D03*
%TO.N,Net-(ESP1-Pad2)*%
X147574000Y-73914000D03*
%TO.N,Net-(ESP1-Pad1)*%
X149098000Y-72898000D03*
%TO.N,Net-(J2-Pad1)*%
X121412000Y-81280000D03*
%TD*%
D13*
%TO.N,Net-(C1-Pad1)*%
X150686000Y-83502000D02*
X150686000Y-81344000D01*
X150686000Y-81344000D02*
X149352000Y-80010000D01*
X149352000Y-80010000D02*
X148336000Y-80010000D01*
X148336000Y-80010000D02*
X147828000Y-79502000D01*
X126238000Y-85852000D02*
X124968000Y-84582000D01*
X143764000Y-94742000D02*
X126746000Y-94742000D01*
X144526000Y-93980000D02*
X143764000Y-94742000D01*
X124968000Y-84582000D02*
X121158000Y-84582000D01*
X126746000Y-94742000D02*
X126238000Y-94234000D01*
X144526000Y-84582000D02*
X144526000Y-93980000D01*
X126238000Y-94234000D02*
X126238000Y-85852000D01*
X145606000Y-83502000D02*
X144526000Y-84582000D01*
X150686000Y-83502000D02*
X145606000Y-83502000D01*
X147828000Y-76581000D02*
X147955000Y-76454000D01*
X147828000Y-77089000D02*
X147828000Y-76581000D01*
X147828000Y-79502000D02*
X147828000Y-77089000D01*
X147828000Y-77089000D02*
X147828000Y-76454000D01*
%TO.N,Net-(ESP1-Pad19)*%
X120278000Y-83058000D02*
X118500000Y-81280000D01*
X126238000Y-83058000D02*
X120278000Y-83058000D01*
X118500000Y-81280000D02*
X117602000Y-81280000D01*
%TO.N,Net-(ESP1-Pad14)*%
X118500000Y-96520000D02*
X119634000Y-96520000D01*
X120142000Y-97028000D02*
X130302000Y-97028000D01*
X119634000Y-96520000D02*
X120142000Y-97028000D01*
X118500000Y-96520000D02*
X117602000Y-96520000D01*
%TO.N,Net-(ESP1-Pad13)*%
X132461000Y-96139000D02*
X129921000Y-96139000D01*
X129921000Y-96139000D02*
X129482010Y-96577990D01*
X129482010Y-96577990D02*
X120453990Y-96577990D01*
X120142000Y-95622000D02*
X118500000Y-93980000D01*
X120142000Y-96266000D02*
X120142000Y-95622000D01*
X120453990Y-96577990D02*
X120142000Y-96266000D01*
X118500000Y-93980000D02*
X117602000Y-93980000D01*
%TO.N,Net-(ESP1-Pad12)*%
X134166001Y-95304001D02*
X134366000Y-95504000D01*
X126292001Y-95304001D02*
X134166001Y-95304001D01*
X125222000Y-94234000D02*
X126292001Y-95304001D01*
X123698000Y-91440000D02*
X125222000Y-92964000D01*
X125222000Y-92964000D02*
X125222000Y-94234000D01*
X118500000Y-91440000D02*
X123698000Y-91440000D01*
X118500000Y-91440000D02*
X117602000Y-91440000D01*
%TO.N,Net-(ESP1-Pad11)*%
X144526000Y-97028000D02*
X138430000Y-97028000D01*
X148844000Y-92710000D02*
X144526000Y-97028000D01*
X153416000Y-92710000D02*
X148844000Y-92710000D01*
X157226000Y-96520000D02*
X153416000Y-92710000D01*
X157226000Y-96520000D02*
X158242000Y-96520000D01*
%TO.N,Net-(ESP1-Pad10)*%
X144400410Y-96266000D02*
X148464410Y-92202000D01*
X140462000Y-96266000D02*
X144400410Y-96266000D01*
X155448000Y-92202000D02*
X157226000Y-93980000D01*
X148464410Y-92202000D02*
X155448000Y-92202000D01*
X157226000Y-93980000D02*
X158242000Y-93980000D01*
%TO.N,Net-(ESP1-Pad9)*%
X156914009Y-91751991D02*
X157226000Y-91440000D01*
X148278009Y-91751991D02*
X156914009Y-91751991D01*
X144526000Y-95504000D02*
X148278009Y-91751991D01*
X142494000Y-95504000D02*
X144526000Y-95504000D01*
X157226000Y-91440000D02*
X158242000Y-91440000D01*
%TO.N,Net-(ESP1-Pad7)*%
X147956410Y-86360000D02*
X157226000Y-86360000D01*
X147574000Y-86742410D02*
X147956410Y-86360000D01*
X147574000Y-89408000D02*
X147574000Y-86742410D01*
X146050000Y-90932000D02*
X147574000Y-89408000D01*
X157226000Y-86360000D02*
X158242000Y-86360000D01*
%TO.N,Net-(ESP1-Pad6)*%
X154434820Y-83820000D02*
X157226000Y-83820000D01*
X152656820Y-85598000D02*
X154434820Y-83820000D01*
X147066000Y-86614000D02*
X148082000Y-85598000D01*
X148082000Y-85598000D02*
X152656820Y-85598000D01*
X147066000Y-88392000D02*
X147066000Y-86614000D01*
X145796000Y-89662000D02*
X147066000Y-88392000D01*
X157226000Y-83820000D02*
X158242000Y-83820000D01*
X145288000Y-89662000D02*
X145796000Y-89662000D01*
%TO.N,Net-(ESP1-Pad5)*%
X145796000Y-85852000D02*
X146558000Y-85090000D01*
X152528410Y-85090000D02*
X154374009Y-83244401D01*
X146558000Y-85090000D02*
X152528410Y-85090000D01*
X154374009Y-83244401D02*
X154374009Y-82099991D01*
X155194000Y-81280000D02*
X157226000Y-81280000D01*
X154374009Y-82099991D02*
X155194000Y-81280000D01*
X157226000Y-81280000D02*
X158242000Y-81280000D01*
%TO.N,Net-(ESP1-Pad4)*%
X145796000Y-84582000D02*
X152400000Y-84582000D01*
X152400000Y-84582000D02*
X153924000Y-83058000D01*
X153924000Y-83058000D02*
X153924000Y-79756000D01*
X153924000Y-79756000D02*
X154940000Y-78740000D01*
X156972000Y-78740000D02*
X158242000Y-78740000D01*
X154940000Y-78740000D02*
X156972000Y-78740000D01*
X156972000Y-78740000D02*
X157226000Y-78740000D01*
%TO.N,Net-(ESP1-Pad2)*%
X147574000Y-73914000D02*
X147828000Y-74168000D01*
X155194000Y-74168000D02*
X157226000Y-76200000D01*
X147828000Y-74168000D02*
X155194000Y-74168000D01*
%TO.N,Net-(ESP1-Pad1)*%
X157226000Y-73660000D02*
X158242000Y-73660000D01*
X149098000Y-72898000D02*
X149860000Y-73660000D01*
X149860000Y-73660000D02*
X157226000Y-73660000D01*
%TO.N,Net-(J2-Pad1)*%
X121412000Y-81280000D02*
X121412000Y-70358000D01*
X119634000Y-68580000D02*
X118500000Y-68580000D01*
X121412000Y-70358000D02*
X119634000Y-68580000D01*
X118500000Y-68580000D02*
X117602000Y-68580000D01*
%TD*%
M02*
