M48
; DRILL file {KiCad 5.1.8} date Tue Dec  8 00:01:41 2020
; FORMAT={-:-/ absolute / inch / decimal}
; #@! TF.CreationDate,2020-12-08T00:01:41+01:00
; #@! TF.GenerationSoftware,Kicad,Pcbnew,5.1.8
; #@! TF.FileFunction,Plated,1,2,PTH
FMAT,2
INCH
T1C0.0157
T2C0.0394
%
G90
G05
T1
X4.77Y-3.33
X4.78Y-3.2
X4.97Y-3.27
X5.13Y-3.82
X5.215Y-3.785
X5.29Y-3.76
X5.45Y-3.82
X5.53Y-3.79
X5.61Y-3.76
X5.72Y-3.53
X5.74Y-3.33
X5.74Y-3.38
X5.75Y-3.58
X5.81Y-2.91
X5.825Y-3.01
X5.87Y-2.87
X5.9325Y-3.2875
T2
X6.23Y-2.7
X6.23Y-2.8
X6.23Y-2.9
X6.23Y-3.0
X6.23Y-3.1
X6.23Y-3.2
X6.23Y-3.3
X6.23Y-3.4
X6.23Y-3.5
X6.23Y-3.6
X6.23Y-3.7
X6.23Y-3.8
X4.63Y-2.7
X4.63Y-2.8
X4.63Y-2.9
X4.63Y-3.0
X4.63Y-3.1
X4.63Y-3.2
X4.63Y-3.3
X4.63Y-3.4
X4.63Y-3.5
X4.63Y-3.6
X4.63Y-3.7
X4.63Y-3.8
T0
M30
